<svg xmlns="http://www.w3.org/2000/svg" viewBox="0 0 960 600"><rect width="960" height="600" fill="#f6f1e7"/><rect x="42" y="0" width="875" height="600" fill="#c7b599"/><polygon points="588,10 862,14 887,20 899,15 908,62 903,81 895,92 884,92 886,98 876,101 876,89 869,90 864,85 847,94 844,97 840,93 836,104 831,103 825,96 819,100 813,100 801,97 800,97 791,105 782,100 783,93 758,96 764,93 754,89 747,87 732,89 727,89 722,96 717,94 708,94 700,90 696,94 686,94 696,101 693,107 680,108 669,111 676,118 665,113 656,116 646,107 635,111 638,103 616,109 604,111 607,105 601,103 594,104 586,101 579,109 570,112 553,112 549,104 544,112 540,101 536,111 530,94 523,94 516,93 514,97 508,98 501,96 493,82 488,85 481,90 484,90 474,87 462,89 455,94 451,89 433,89 417,82 408,86 404,81 385,72 365,67 372,55 362,53 358,59 345,49 352,41 354,51 369,46 356,40 365,41 382,34 382,27 377,19 373,22 362,34 339,36 348,29 361,31 355,27 336,29 325,25 317,30 311,26 303,29 311,31 328,31 318,38 296,37 288,36 270,27 269,27 261,30 255,25 244,20 231,16 214,18 209,20 197,16 352,15 588,11" fill="#d4c0a0"/><polygon points="53,15 56,22 60,44 64,59 69,51 72,51 76,57 86,49 93,44 98,38 108,42 113,38 119,40 120,44 125,51 138,38 154,40 158,41 169,48 177,44 179,40 194,45 198,46 203,46 207,45 212,41 228,40 238,40 248,42 257,40 259,40 269,45 273,40 277,42 280,55 291,48 291,57 291,61 289,70 272,74 276,78 257,83 257,78 254,70 250,68 254,77 243,83 239,79 242,77 235,72 229,83 218,78 222,81 212,82 194,79 198,68 194,66 187,64 179,59 175,68 179,75 176,77 166,78 164,72 157,64 150,75 136,68 134,70 128,63 125,56 94,60 87,57 83,68 79,72 73,77 68,64 75,64 67,61 61,61 54,64 54,71 56,78 53,115" fill="#e1ceae"/><polygon points="799,16 812,20 819,19 821,20 832,18 836,20 840,18 846,20 854,18 855,18 860,18 864,20 869,22 872,19 876,22 877,29 880,34 881,30 890,26 886,33 879,44 877,52 868,55 865,53 857,49 855,52 855,60 851,57 849,61 854,68 843,61 838,60 825,66 824,68 821,64 825,60 814,56 821,51 825,53 806,46 799,48 797,53 797,59 791,52 794,48 779,45 773,49 762,48 761,42 761,45 756,48 750,51 747,55 741,49 738,52 745,42 738,38 742,27 753,26 750,25 754,19 761,19 769,23 772,19 773,19 790,19 787,26 791,29 795,22 799,18" fill="#d5c7ac"/><polygon points="164,14 188,16 209,21 214,16 218,16 231,16 238,21 247,21 253,22 259,26 261,30 268,29 274,27 277,34 289,42 291,48 281,55 277,52 277,46 272,45 259,40 257,40 247,40 238,38 232,40 218,38 209,42 203,46 198,46 194,45 179,40 177,42 169,45 162,42 155,42 143,38 128,41 119,46 124,41 117,40 104,42 98,41 93,44 86,49 80,59 75,51 71,53 64,59 61,46 56,40 61,27 60,38 67,48 69,41 80,38 86,25 91,27 102,22 116,21 109,26 128,26 142,31 146,25 145,18 153,23 155,19 166,18 164,15" fill="#d5c7ac"/><polygon points="371,20 377,20 378,30 376,37 373,40 361,40 361,44 365,46 352,48 350,41 346,44 348,57 355,56 369,51 365,60 352,67 344,61 332,61 321,56 313,53 306,55 305,52 310,57 321,66 311,64 324,72 288,68 295,59 292,51 298,42 305,42 314,42 313,41 296,38 313,37 321,38 321,31 310,27 302,23 313,25 320,30 332,22 346,26 356,26 359,30 347,31 347,36 359,34 371,29 371,22" fill="#d5c7ac"/><polygon points="679,22 685,30 689,33 694,27 698,38 687,38 679,46 679,52 676,55 663,55 661,60 657,68 650,64 645,63 639,70 652,72 667,74 671,75 664,71 670,72 682,71 675,83 668,86 665,86 660,83 657,90 653,90 644,89 638,87 634,85 637,74 632,62 649,60 646,53 642,52 645,45 649,44 656,42 652,37 657,34 659,29 668,41 668,36 679,29" fill="#d5c7ac"/><polygon points="567,9 593,9 588,10 588,11 552,11 422,12 422,14 352,14 317,15 317,14 303,14 284,15 284,14 136,14 135,11 162,11 162,10 172,11 176,11 176,10 192,11 194,10 264,10 268,11 268,10 278,10 305,11 305,10 313,10 326,11 326,10 328,11 365,10 369,10 369,11 376,10 392,10 392,11 399,10 567,10" fill="#f7e8cd"/><polygon points="134,12 136,14 170,15 166,18 168,21 155,19 153,19 150,23 149,19 143,26 146,25 142,30 142,31 128,30 128,26 125,27 109,26 114,25 116,21 109,23 102,22 98,25 98,26 91,27 88,27 86,25 86,23 82,34 80,34 79,42 69,41 67,48 67,42 60,38 64,34 61,27 61,23 54,14 69,14 134,14" fill="#d4c0a0"/><polygon points="469,14 478,16 481,16 490,18 490,15 484,14 514,15 511,15 512,21 503,21 499,16 499,22 503,23 499,33 488,36 485,34 480,31 478,29 474,23 466,21 471,21 474,21 477,18 469,16" fill="#c7b599"/><polygon points="668,54 675,56 678,57 672,62 678,67 676,72 671,67 664,71 668,75 671,78 667,74 652,72 645,75 639,74 638,70 645,63 650,62 654,64 657,64 664,62 665,57 668,55" fill="#e1ceae"/><polygon points="813,29 817,31 835,31 839,36 842,34 845,38 847,31 851,30 858,37 860,42 855,44 853,45 840,48 836,46 831,42 835,37 828,37 825,34 820,38 813,34 808,30 813,30" fill="#e1ceae"/><polygon points="906,111 907,111 907,197 909,197 909,209 910,209 910,245 909,245 909,250 907,250 907,273 906,273 906,286 905,286 905,247 906,247 906,128 905,128 905,119 906,119" fill="#f7e8cd"/><polygon points="894,8 905,8 905,10 909,10 910,14 912,14 912,41 910,41 910,62 909,62 909,101 906,102 906,94 905,94 906,62 907,62 906,14 894,10" fill="#f7e8cd"/><polygon points="556,41 560,44 563,44 567,48 575,45 571,49 570,52 563,55 560,57 566,62 560,62 556,59 553,59 548,62 548,57 541,55 545,49 548,44 555,45 556,42" fill="#d5c7ac"/><polygon points="87,56 87,60 91,71 84,66 87,74 80,77 68,82 67,82 58,78 61,75 57,67 61,62 67,62 75,64 72,66 71,77 79,74 78,68 87,57" fill="#d5c7ac"/><polygon points="303,48 306,55 309,56 313,53 317,55 321,56 325,53 332,62 333,68 328,70 314,66 315,63 321,66 317,63 314,59 306,59 303,53 303,52" fill="#e1ceae"/><polygon points="630,37 635,41 639,48 646,48 648,52 641,56 630,55 627,62 630,67 629,64 624,63 619,59 623,48 627,51 631,46 629,42 630,40" fill="#d5c7ac"/><polygon points="764,9 872,9 872,10 857,10 857,11 772,11 772,10 764,10" fill="#e0d2b6"/><polygon points="857,10 884,10 884,11 896,10 903,12 903,15 899,15 899,16 895,15 894,21 887,21 881,16 875,12 862,14 862,12 857,11" fill="#c7b599"/><polygon points="902,42 905,52 896,51 891,62 887,66 890,72 891,76 886,76 883,71 884,62 883,59 890,55 891,49 894,44 894,46 902,44" fill="#c7b599"/><polygon points="52,12 54,12 54,15 53,15 52,124 52,68 50,68 50,52 50,52 50,40 50,40 50,34 52,27 50,27 50,15 52,15" fill="#f7e8cd"/><polygon points="99,56 125,56 125,71 123,71 123,72 121,72 120,62 117,63 114,67 113,62 105,63 105,66 102,66 102,60 99,60 99,59" fill="#b8b6a7"/><polygon points="43,0 917,0 917,600 43,600" fill="#fef2dc"/><polygon points="683,171 696,190 680,195 705,197 705,206 716,205 723,200 743,206 739,209 757,217 771,212 791,204 797,200 802,198 817,198 832,198 847,190 857,200 869,195 888,190 884,206 887,212 896,227 880,217 880,235 871,245 868,262 888,249 902,257 884,271 871,282 851,308 832,310 827,323 810,325 791,344 780,361 758,369 760,359 763,344 741,349 735,351 717,347 712,336 715,342 705,353 700,365 685,357 676,365 653,372 641,365 627,359 620,357 607,366 586,368 579,368 564,372 553,370 540,361 536,353 529,372 518,368 515,370 501,366 490,369 471,377 443,366 430,357 433,340 430,321 444,313 456,297 456,282 475,271 462,273 475,257 475,239 496,232 499,260 504,288 510,303 520,299 530,288 549,286 563,284 585,290 590,280 598,280 613,288 627,297 633,284 645,272 664,256 645,254 634,269 627,269 609,269 590,265 589,269 583,258 579,271 574,276 578,261 559,251 553,234 562,239 568,245 574,241 585,243 597,235 611,239 601,245 619,245 615,235 618,221 644,209 650,195 664,183 682,185 683,176" fill="#c7b599"/><polygon points="434,89 455,97 469,103 482,104 488,120 499,113 519,108 531,111 544,128 557,127 572,124 575,133 589,134 590,134 594,124 604,130 605,138 600,146 596,164 605,165 612,144 613,137 626,133 631,131 623,148 628,141 641,154 641,156 613,153 608,161 619,165 633,168 641,167 644,163 648,169 646,184 659,172 667,161 680,154 695,133 726,131 741,130 753,126 753,111 773,112 773,119 790,120 797,124 803,141 799,149 816,160 820,150 823,142 829,152 847,150 861,150 861,159 864,169 875,167 872,178 883,182 892,161 906,176 901,245 870,267 877,250 883,238 881,224 888,227 892,223 881,215 887,209 895,194 876,189 872,198 853,198 845,186 829,204 819,202 802,197 798,195 790,200 778,215 765,220 743,220 739,209 743,206 727,201 716,201 708,215 705,202 695,200 679,194 693,184 678,178 679,182 659,183 654,194 648,205 618,221 612,232 592,234 583,238 571,247 568,239 566,230 548,241 533,210 546,202 530,182 533,168 520,160 519,142 518,128 494,142 484,134 473,120 471,109 445,103 434,92" fill="#c1af93"/><polygon points="354,72 374,77 378,83 376,90 369,113 363,109 354,113 350,113 335,115 328,118 324,131 309,122 295,128 281,118 277,128 269,131 277,142 264,150 258,156 257,159 255,163 243,168 244,178 253,210 265,213 269,216 277,213 285,220 291,224 288,226 279,231 291,247 294,250 306,251 317,246 322,247 328,257 324,254 315,257 309,257 302,265 300,271 294,253 280,250 268,247 266,235 251,243 253,251 254,262 248,256 239,260 236,250 232,247 225,247 222,250 217,260 210,260 205,256 201,247 202,238 205,231 194,221 190,226 180,234 165,241 160,241 149,253 125,257 120,251 117,251 109,257 102,260 93,260 76,260 69,266 62,280 64,291 61,294 58,273 54,262 57,305 56,310 54,257 67,254 69,250 93,242 97,236 108,234 112,231 121,221 131,217 136,210 149,200 151,193 161,180 169,175 176,164 183,159 195,153 205,142 207,139 216,135 221,128 227,123 236,118 242,115 255,107 264,101 273,97 284,89 296,86 305,83 314,78 335,79 332,87 337,90 340,83 345,86 354,82 354,72" fill="#e0d2b6"/><polygon points="489,81 501,93 514,94 511,92 523,94 536,111 544,112 551,109 567,108 577,107 589,103 601,105 604,111 618,107 633,111 646,109 664,109 674,116 675,107 680,107 700,103 686,92 694,87 708,94 717,90 730,93 747,87 757,90 767,96 782,96 791,105 805,92 812,98 820,104 830,104 839,101 843,96 855,90 868,86 876,89 875,103 886,94 899,86 906,119 897,139 903,175 892,161 886,178 881,187 880,176 881,168 870,161 861,167 862,156 861,150 851,148 828,160 827,142 820,143 816,154 820,159 809,157 795,153 805,130 797,124 782,124 779,120 788,109 771,113 758,107 754,119 743,124 732,133 722,138 700,133 689,150 679,156 664,161 661,169 653,182 652,172 653,165 634,164 635,168 631,160 619,165 613,169 616,159 624,154 641,157 641,154 634,143 627,148 616,139 630,133 615,133 619,138 601,134 605,128 592,130 597,134 586,134 575,133 575,126 563,123 548,123 541,120 525,105 515,112 496,112 484,120 481,105 475,105 464,98 444,92 451,90 462,89 477,87 482,89 489,82" fill="#c7b599"/><polygon points="902,256 905,286 906,288 903,297 906,301 898,305 888,306 884,313 897,317 894,323 892,325 887,339 888,332 879,328 871,331 864,338 862,340 864,353 855,358 860,359 865,361 868,365 875,368 864,373 860,370 857,376 855,376 847,384 845,381 842,380 834,392 832,396 830,403 831,409 825,402 821,398 813,395 809,394 799,399 802,402 801,405 802,407 799,410 791,405 787,403 786,409 779,413 783,418 784,424 779,435 763,431 758,433 756,436 757,441 749,443 743,435 723,437 720,429 727,425 732,422 747,413 754,410 758,407 767,400 772,396 776,392 782,388 786,383 793,377 797,373 799,370 805,366 809,362 817,350 821,343 828,339 835,335 842,321 846,314 851,308 855,299 864,294 868,288 873,279 876,276 881,273 884,271 891,265 894,262 897,261 902,257" fill="#e0d2b6"/><polygon points="433,387 437,387 448,387 448,388 458,391 462,391 479,391 479,394 488,395 493,395 493,394 508,394 512,392 521,396 525,392 530,395 534,395 548,395 551,392 555,394 556,394 582,395 587,392 587,399 575,409 574,413 563,422 556,424 556,431 548,432 549,439 544,436 542,436 544,424 544,422 536,418 530,418 529,414 525,420 527,420 531,426 537,428 540,432 538,436 541,437 537,440 537,437 526,441 519,441 514,439 514,440 510,441 500,441 500,443 503,447 496,447 492,440 488,440 484,437 484,435 479,429 475,428 474,425 466,417 463,417 449,413 448,409 451,406 449,399 434,394 433,392" fill="#666057"/><polygon points="335,342 337,344 333,349 350,351 354,359 355,365 358,368 362,364 363,361 373,355 373,359 367,366 374,365 384,366 384,374 380,370 372,372 378,379 376,383 384,385 385,388 378,388 374,385 374,391 369,395 366,403 376,400 381,406 374,407 377,414 369,418 374,420 366,428 362,440 359,431 348,414 347,409 343,390 339,390 332,387 330,379 325,387 314,390 306,409 295,409 292,414 300,417 303,417 315,417 321,407 329,411 329,406 337,402 340,414 337,418 315,428 307,426 294,435 291,420 284,415 287,407 273,411 263,411 280,400 287,395 295,391 299,381 307,377 311,370 318,365 335,343" fill="#e0d2b6"/><polygon points="440,211 448,220 452,227 447,239 459,243 458,235 470,238 470,256 473,258 470,258 463,273 464,276 470,271 471,273 462,279 456,286 459,291 456,297 448,301 447,306 447,320 436,321 437,313 443,316 443,301 444,294 440,292 440,287 440,276 449,272 454,272 463,267 459,258 459,267 448,258 448,254 438,267 436,271 432,277 432,280 434,287 425,294 422,295 422,303 417,310 419,301 410,303 403,306 393,310 392,297 399,291 404,284 411,280 404,279 396,286 393,276 395,264 402,256 408,269 414,264 410,261 406,256 404,250 400,243 400,239 403,230 413,230 428,220 440,213" fill="#c1af93"/><polygon points="176,59 191,64 194,66 198,68 194,79 198,82 212,82 216,83 229,87 236,89 242,85 247,86 259,86 266,83 272,83 280,79 274,77 270,75 281,70 289,68 310,74 306,81 296,86 284,89 276,93 269,100 263,101 259,101 246,107 238,101 228,104 221,107 214,111 222,108 217,113 205,112 196,115 192,119 187,116 181,112 165,103 162,107 154,112 155,107 161,104 154,101 150,98 142,96 134,94 134,92 129,93 131,94 132,92 127,98 127,83 129,81 134,81 142,68 150,75 155,71 158,75 154,79 177,79 183,81 191,79 183,70 175,64 176,60" fill="#d4c0a0"/><polygon points="69,435 79,441 84,447 76,452 83,458 88,458 83,452 86,451 93,447 124,448 131,447 142,447 158,440 161,444 169,451 172,444 181,440 184,436 187,446 192,452 186,454 180,456 180,472 165,458 147,465 150,474 160,477 160,484 151,487 143,487 135,487 131,478 123,476 112,467 106,465 93,461 86,465 83,462 75,461 73,469 79,485 73,491 82,492 82,487 86,492 84,502 82,506 76,517 69,525 65,522 60,515 61,511 54,506 54,451 58,456 64,456 58,467 62,470 68,465 72,465 68,459 71,448 73,440 72,437 69,436" fill="#e1ceae"/><polygon points="414,493 417,493 421,497 422,504 430,510 434,511 438,515 438,526 444,534 451,536 454,541 459,543 464,547 471,554 478,551 482,551 489,555 490,558 493,560 496,560 499,562 499,563 501,563 504,564 504,566 512,570 529,569 564,571 564,574 568,573 578,571 586,574 586,573 596,571 616,571 618,574 616,577 605,580 601,580 585,582 582,585 571,586 555,586 555,588 548,589 529,588 523,585 523,589 512,588 508,588 503,585 503,584 479,580 473,580 462,575 460,563 451,556 447,552 423,536 422,530 414,514 411,514 410,502 414,500" fill="#1e3754"/><polygon points="135,111 139,115 150,116 157,116 146,122 140,127 145,128 142,135 145,139 145,148 157,142 160,144 166,142 171,148 173,146 171,141 183,135 188,141 192,138 203,137 205,142 190,156 187,152 171,164 166,176 161,180 155,190 149,183 142,187 136,190 134,190 128,193 142,195 136,204 131,215 124,219 121,221 116,221 116,219 99,216 94,215 90,208 82,212 79,209 73,219 78,220 60,216 72,213 72,208 79,206 84,206 95,208 106,213 116,204 120,200 106,202 101,205 105,194 116,186 119,183 130,163 130,161 128,118 135,113" fill="#c1af93"/><polygon points="700,384 709,385 717,385 720,384 726,385 746,384 746,387 743,388 737,391 735,398 741,402 741,409 730,413 724,415 720,417 713,420 702,417 701,410 704,406 700,402 697,400 690,399 683,403 680,409 675,409 671,407 665,406 668,413 671,411 682,410 685,411 687,414 682,418 667,429 652,428 649,429 641,435 631,426 637,422 631,418 627,414 620,410 622,418 615,411 612,409 607,402 598,396 601,390 604,390 613,392 615,392 622,391 629,392 652,392 657,391 661,390 671,391 679,391 682,391 686,390 690,388 694,387 700,385" fill="#666057"/><polygon points="559,252 567,253 578,261 568,261 571,275 574,283 578,277 577,271 582,262 583,258 589,260 585,268 593,275 596,264 601,265 609,265 615,264 622,269 624,264 631,261 635,268 639,261 642,254 649,261 663,260 664,267 659,267 649,276 642,277 633,284 624,288 627,297 620,295 613,290 611,291 601,294 603,280 601,279 590,280 594,290 588,284 582,291 575,288 562,287 553,284 549,286 541,282 538,290 526,286 525,290 519,295 514,305 510,303 516,299 510,291 503,279 508,272 522,269 530,268 534,262 545,254 549,254 559,253" fill="#c1af93"/><polygon points="373,356 392,366 395,372 397,394 392,399 382,403 395,409 396,414 395,424 408,421 413,414 404,409 413,411 426,426 440,451 447,458 451,466 462,473 467,485 469,488 456,495 455,489 449,481 449,467 441,462 437,470 430,461 422,450 423,446 421,447 417,450 407,439 395,443 391,450 381,443 371,439 378,424 369,418 377,414 373,409 381,407 378,406 373,405 369,400 373,391 371,385 378,388 385,388 384,385 376,383 378,379 371,373 376,370 380,370 384,374 382,368 368,366 373,359 373,357" fill="#e1ceae"/><polygon points="362,267 371,271 374,273 376,273 380,297 384,308 387,313 388,329 391,331 393,344 403,350 408,354 413,354 413,358 413,368 415,372 418,377 421,377 426,379 433,388 437,394 437,400 441,409 437,406 432,403 426,400 422,399 419,394 415,392 411,391 407,391 404,398 402,394 403,388 407,384 404,383 399,372 397,376 392,369 392,366 387,358 378,346 374,343 370,331 365,329 362,325 359,320 358,317 363,314 363,309 362,305 361,301 358,292 357,292 361,279 362,269" fill="#1b2740"/><polygon points="397,183 404,183 406,185 408,183 413,183 413,186 415,187 415,195 417,195 415,198 423,198 425,206 423,205 417,206 417,209 415,209 417,212 408,212 404,206 403,209 399,209 397,212 395,212 392,215 392,217 389,217 389,220 387,221 387,226 382,231 382,238 380,241 374,268 362,267 362,269 359,269 359,264 353,264 353,236 356,235 358,219 362,215 362,210 365,210 366,205 374,197 374,194 378,193 378,190 387,187 391,183 397,183" fill="#1b2740"/><polygon points="285,407 284,413 292,418 288,448 287,432 280,433 284,431 276,426 273,420 269,420 266,421 262,429 273,433 279,432 281,440 268,443 266,446 265,450 272,455 269,458 268,462 273,467 270,474 265,481 268,485 273,481 276,484 273,489 273,493 266,497 262,496 261,493 259,481 255,477 254,474 253,467 247,455 235,448 229,446 221,443 214,436 220,433 224,432 229,431 236,428 240,421 246,417 248,414 262,410 265,411 273,413 285,409" fill="#e1ceae"/><polygon points="131,89 136,92 134,94 136,98 150,98 154,101 154,104 153,108 164,109 165,103 181,112 186,108 192,119 196,115 205,112 222,112 217,109 221,107 228,104 238,101 243,103 238,109 229,123 227,120 220,116 212,116 205,124 196,127 201,126 203,139 184,141 175,138 173,144 171,148 166,142 162,144 157,142 147,141 140,141 142,135 143,128 140,127 146,119 157,118 154,116 146,113 135,111 129,118 132,96 131,94 131,90" fill="#c7b599"/><polygon points="519,452 534,456 540,456 559,459 557,462 559,473 564,476 570,478 574,481 575,484 578,487 583,491 588,492 593,497 598,503 604,510 607,511 615,511 619,513 624,517 627,522 633,522 641,526 646,529 633,534 627,530 619,528 611,523 604,523 601,521 594,519 594,517 589,513 583,511 578,510 568,503 556,495 556,491 546,485 544,481 538,477 538,474 533,470 530,467 525,467 519,463 514,466 515,465 519,452" fill="#a1b1ae"/><polygon points="717,371 726,373 738,373 746,372 757,374 748,385 726,380 715,381 701,381 675,385 664,387 652,387 627,388 619,390 581,392 578,391 562,388 553,391 541,394 533,391 511,392 488,395 469,391 448,388 443,388 428,376 436,380 443,379 456,385 463,381 471,381 479,388 499,384 503,383 523,383 531,384 546,385 564,381 581,385 598,384 613,381 624,383 634,383 644,383 667,380 685,379 705,376 717,372" fill="#979488"/><polygon points="388,159 395,159 396,164 402,163 404,164 403,175 399,176 397,180 384,182 381,182 380,183 381,190 378,190 371,193 371,190 370,190 369,194 366,194 359,204 358,210 355,210 355,213 354,213 350,224 350,232 348,232 347,243 344,243 344,238 335,231 332,231 335,206 339,202 340,195 344,190 347,189 347,186 352,180 354,175 356,169 362,169 362,168 367,167 371,163 378,161 387,161 388,160" fill="#1b2740"/><polygon points="404,206 408,212 425,216 415,219 417,220 414,227 413,230 410,230 403,230 403,234 402,234 397,241 397,245 395,261 392,262 393,276 392,284 389,284 389,291 392,305 393,305 395,321 397,331 402,335 400,344 393,333 392,333 391,328 387,313 384,312 384,308 376,273 374,273 374,271 372,268 374,268 377,260 378,246 380,246 382,238 382,231 387,226 389,220 389,217 392,217 395,212 404,208" fill="#2d4763"/><polygon points="384,498 387,502 391,513 395,515 400,525 404,532 407,536 422,548 430,552 432,556 444,563 449,567 455,570 460,573 470,577 473,579 480,582 485,586 482,588 455,585 452,578 448,578 444,575 440,579 434,579 430,578 430,577 425,573 421,570 414,567 407,562 403,569 402,569 396,562 408,554 406,547 397,544 393,539 395,536 384,530 381,532 372,530 377,523 382,517 382,510 377,507 384,504" fill="#d5c7ac"/><polygon points="712,337 726,337 723,349 720,351 734,354 739,358 745,350 750,353 757,340 765,344 764,354 760,362 757,359 743,361 738,361 730,365 705,365 701,370 685,374 660,376 656,377 639,374 635,377 630,377 631,374 623,369 613,362 624,354 624,359 633,362 641,359 650,366 657,368 653,372 667,366 676,365 676,362 685,357 693,359 700,365 704,359 705,353 709,351 715,343 713,338 712,339" fill="#c1af93"/><polygon points="61,165 65,165 68,165 68,168 69,169 69,176 72,176 71,185 72,185 73,193 80,191 80,183 82,171 90,169 93,165 95,182 119,185 120,185 120,186 113,189 113,193 99,198 101,205 106,205 112,202 117,198 119,204 116,204 112,209 106,213 101,208 94,205 93,206 84,208 79,206 79,208 69,210 69,213 72,215 60,216 61,219 56,221 54,221 58,168 61,165" fill="#c7b599"/><polygon points="742,360 758,365 743,376 731,374 720,373 706,373 667,380 644,383 627,381 611,387 603,384 579,383 564,381 542,385 529,384 522,385 501,387 486,385 475,387 469,381 458,383 478,377 482,380 501,381 515,379 525,380 529,380 540,374 549,379 570,377 578,380 589,377 597,373 613,370 631,370 630,377 635,380 650,377 659,379 667,377 686,372 701,370 722,364 735,365 742,364" fill="#b4a78f"/><polygon points="339,154 344,154 351,165 354,167 354,171 343,179 343,182 339,185 336,189 336,195 329,198 326,209 326,213 325,213 322,221 322,243 317,242 314,249 306,250 306,247 303,242 302,242 302,236 301,236 304,232 304,223 310,223 306,217 306,212 313,212 307,208 307,204 309,204 314,197 314,194 311,193 318,176 321,176 324,172 332,167 332,163 335,163 337,156 339,156" fill="#1b2740"/><polygon points="519,463 525,467 530,467 533,470 536,474 538,477 544,478 546,481 546,485 556,491 560,495 568,503 578,510 581,510 589,513 589,515 589,518 589,519 586,521 589,523 585,523 582,521 582,518 581,525 574,526 578,528 555,529 549,525 538,521 525,519 541,513 545,518 552,521 553,521 551,515 545,513 542,510 540,506 538,502 534,491 531,489 527,482 525,482 519,474" fill="#2d4763"/><polygon points="498,550 515,551 515,552 523,554 530,554 530,555 541,555 568,558 568,559 593,559 593,560 608,562 611,562 611,560 618,560 655,560 655,566 648,567 648,569 639,566 618,566 618,574 616,574 616,571 596,573 586,573 586,574 579,574 568,573 568,574 564,574 564,571 529,569 519,569 519,566 516,566 515,560 508,559 508,556 505,556 503,555 501,552 498,551" fill="#b4a78f"/><polygon points="213,441 224,446 229,446 235,448 236,451 253,462 254,474 255,477 258,477 257,492 253,499 253,502 238,511 232,511 229,507 229,502 228,500 235,496 233,496 239,491 240,492 247,499 247,497 250,492 246,492 248,491 246,485 244,480 238,481 235,481 229,484 225,488 218,474 222,478 228,478 227,474 225,469 218,466 218,463 212,459 209,458 213,443" fill="#a1b1ae"/><polygon points="604,431 609,431 620,433 620,437 646,437 652,436 652,435 660,435 667,441 668,446 670,452 654,455 654,456 649,450 644,448 641,454 637,451 608,454 608,455 601,456 594,456 594,459 588,455 581,455 581,454 586,448 593,448 594,441 583,447 579,447 578,454 578,448 577,448 570,443 570,437 572,435 582,432 589,432 590,437 600,433 604,432" fill="#323c4d"/><polygon points="899,420 903,420 903,454 883,451 886,450 886,446 879,446 873,452 871,454 876,455 876,458 873,461 868,459 869,467 861,467 860,472 857,474 854,474 860,478 860,482 849,481 849,477 846,477 842,470 839,470 836,467 830,469 832,465 839,461 845,459 847,451 851,451 857,446 865,441 871,440 875,435 877,435 879,432 890,424 896,424 899,421" fill="#b8b6a7"/><polygon points="791,500 799,502 790,503 787,508 787,511 779,515 780,517 776,521 787,525 787,526 794,529 817,530 798,536 798,533 783,536 778,536 772,537 763,538 761,541 756,544 754,544 749,541 749,543 741,547 738,548 717,548 713,545 713,543 724,537 737,533 745,529 746,525 752,523 760,517 767,515 771,511 771,507 775,506 778,506 791,502" fill="#e0d2b6"/><polygon points="536,353 534,362 541,365 548,362 552,370 564,369 564,370 577,374 571,364 585,370 586,372 589,366 598,362 608,365 609,377 597,376 588,380 581,381 572,377 555,376 548,373 533,374 527,377 521,383 507,380 497,381 488,380 479,377 486,374 485,368 493,359 503,369 508,369 515,373 519,368 514,361 526,372 531,368 536,357" fill="#c1af93"/><polygon points="437,279 440,287 440,292 444,290 447,297 444,306 443,316 441,313 434,316 430,310 425,314 423,314 418,312 414,314 413,318 419,316 425,320 428,327 419,331 414,338 418,339 413,338 408,347 406,342 402,335 395,321 394,314 395,310 408,301 410,303 415,301 417,305 419,310 422,303 422,299 422,292 430,286 430,284 437,280" fill="#c7b599"/><polygon points="140,386 146,390 147,391 161,395 162,399 165,402 172,405 175,399 177,402 187,396 187,388 191,394 194,398 199,396 206,400 198,403 198,407 205,414 199,417 198,421 198,436 195,432 194,424 183,420 177,421 173,421 171,425 166,424 158,425 158,413 157,403 151,400 149,398 140,394 142,398 134,403 130,398 140,388" fill="#979488"/><polygon points="664,462 667,465 670,470 674,472 690,470 708,469 716,466 731,463 728,469 731,473 723,477 711,473 704,480 694,478 683,484 687,487 676,482 671,478 653,480 645,482 638,476 634,478 629,476 624,481 623,484 618,488 609,482 607,481 597,477 590,473 587,472 594,469 607,474 609,473 645,472 648,469 659,472 664,472" fill="#e0d2b6"/><polygon points="168,336 171,339 176,340 188,344 190,353 186,358 191,355 196,354 199,361 202,361 207,366 209,370 212,369 214,373 214,379 207,384 212,388 209,388 203,385 203,388 202,385 195,385 188,383 176,379 176,377 173,374 160,373 161,370 164,368 166,365 169,365 176,365 166,362 166,358 166,354 164,347 166,347 168,342" fill="#2d4763"/><polygon points="328,525 337,532 336,532 335,536 336,540 343,539 355,552 359,552 361,548 362,544 362,547 366,554 369,555 371,560 376,567 376,570 378,575 387,582 382,589 380,585 378,582 373,584 367,585 359,589 356,586 358,582 356,570 356,569 356,562 351,559 350,564 347,555 340,551 340,552 328,547 324,544 328,526" fill="#323e51"/><polygon points="906,548 907,548 909,562 909,567 910,588 907,590 332,590 348,590 385,589 385,590 414,589 440,590 452,589 452,588 462,589 501,589 523,589 523,585 529,588 540,588 540,589 548,588 611,588 615,586 615,588 634,589 771,589 791,588 791,589 886,588 907,588 909,570 907,570 906,566 906,560 902,556 906,556" fill="#f7e8cd"/><polygon points="866,527 880,530 876,530 864,534 860,538 862,541 857,544 854,541 847,540 842,538 828,540 824,547 839,548 842,549 839,551 835,552 830,551 830,549 817,548 763,551 763,555 761,554 757,554 754,544 763,538 772,538 778,537 783,536 783,534 798,536 819,536 828,533 842,536 842,534 855,530 860,530 866,529" fill="#3f5b74"/><polygon points="322,145 328,145 333,153 333,157 332,157 328,161 328,164 325,164 320,168 309,179 309,182 305,186 303,186 305,191 300,198 299,198 299,204 298,209 296,209 298,219 284,213 281,212 283,205 285,200 283,200 284,189 289,180 294,178 294,175 299,171 302,171 300,154 311,159 313,159 317,153 321,149 322,149" fill="#1b2740"/><polygon points="88,87 93,87 93,105 98,123 95,124 93,122 90,124 83,122 83,118 82,118 82,122 80,127 67,130 65,135 63,135 63,133 56,135 54,135 54,126 53,126 56,112 56,100 57,101 61,100 61,108 61,112 65,113 68,111 65,108 67,105 69,97 78,97 79,96 79,89 79,92 88,90" fill="#c7b599"/><polygon points="157,458 171,465 173,465 176,474 175,487 175,480 173,473 171,470 169,466 168,469 166,473 165,473 166,476 169,489 169,488 175,493 177,503 175,503 172,510 172,507 165,522 162,523 158,522 147,511 146,503 147,499 141,493 146,485 151,487 160,484 160,477 154,476 150,474 147,465 151,463 157,459" fill="#a1b1ae"/><polygon points="106,490 109,490 112,496 112,493 120,495 127,496 127,500 124,502 119,503 114,510 114,514 114,528 113,528 113,530 109,529 106,529 104,521 102,517 93,515 83,519 80,522 83,523 83,528 75,528 72,533 68,534 69,525 68,517 76,517 78,514 80,514 84,506 84,502 91,493 106,492" fill="#8b8d8a"/><polygon points="467,507 474,513 484,517 490,518 495,519 499,521 504,518 507,523 515,525 529,528 530,532 527,534 518,533 521,529 516,528 508,530 497,533 500,536 507,541 510,543 503,541 496,538 481,533 474,536 470,533 464,538 459,533 456,526 455,522 454,517 466,521 473,519 469,517 459,511 467,508" fill="#979488"/><polygon points="534,438 537,438 537,440 553,443 560,443 560,444 568,447 577,451 581,455 588,455 589,458 592,461 577,461 577,462 564,461 559,462 559,459 540,458 540,456 533,454 525,452 525,451 511,451 501,448 503,443 500,443 500,441 510,440 514,440 514,439 518,439 526,441 529,439 534,439" fill="#1e3754"/><polygon points="504,127 512,130 519,133 525,135 522,134 519,142 514,146 515,150 516,154 516,160 519,156 522,159 525,164 527,167 519,161 508,157 500,160 488,161 475,163 478,160 475,156 473,141 479,150 484,146 484,138 478,135 484,134 489,137 490,141 490,145 496,145 503,144 503,135 504,130" fill="#b4a78f"/><polygon points="153,548 155,551 160,549 161,555 162,555 162,551 171,552 171,555 175,554 175,558 172,558 171,569 175,569 175,566 176,566 176,585 173,585 173,592 153,592 153,589 149,589 147,574 146,574 146,563 147,563 147,554 153,549" fill="#1b2740"/><polygon points="735,560 756,560 762,562 762,563 767,564 771,564 771,566 784,573 773,575 746,578 746,579 742,579 716,581 716,582 708,581 701,581 701,579 693,578 684,577 684,570 693,571 705,573 711,574 711,575 720,575 721,575 730,575 728,573 727,570 738,570 745,570 743,566 732,562 735,562" fill="#303a4e"/><polygon points="847,568 873,569 877,575 877,578 886,579 887,584 877,581 873,581 866,575 866,578 865,578 862,571 861,575 855,579 866,579 861,584 861,586 835,586 829,584 829,586 806,579 812,579 805,577 805,581 802,584 798,582 798,579 793,577 802,575 806,574 806,573 832,570 847,569" fill="#a1b1ae"/><polygon points="432,309 434,316 428,318 429,323 432,335 434,350 437,364 443,361 445,359 443,366 445,369 443,377 440,368 433,370 426,372 425,374 423,370 421,365 413,355 409,349 413,338 418,339 414,333 419,331 425,323 425,320 419,316 413,312 418,316 422,314 423,312 429,317 432,310" fill="#c1af93"/><polygon points="125,99 127,99 127,104 128,104 128,156 130,156 128,163 130,163 130,182 131,183 98,182 98,178 102,178 102,175 108,175 108,172 105,172 105,167 109,165 110,152 113,152 116,149 123,149 123,145 121,145 123,103 125,100" fill="#b8b6a7"/><polygon points="741,407 743,417 741,420 732,425 727,425 720,429 712,435 713,429 709,431 706,431 704,432 694,436 694,443 691,444 691,439 686,440 682,448 676,448 670,451 668,443 665,435 678,432 687,429 691,428 691,426 698,424 704,424 709,421 713,420 716,417 726,413 730,413 741,409" fill="#e1ceae"/><polygon points="808,501 810,501 810,502 835,501 835,506 839,506 839,508 836,508 836,511 824,513 824,515 825,515 824,519 821,519 821,521 804,521 798,523 798,529 794,529 793,526 778,523 777,521 779,521 779,518 780,518 779,515 783,511 787,511 787,508 790,508 790,504 808,502" fill="#8c9fa5"/><polygon points="235,349 238,350 244,362 251,365 254,370 258,370 261,374 276,379 276,381 279,381 291,384 291,394 287,398 284,398 283,400 277,403 276,395 273,394 262,395 262,391 257,385 253,384 248,381 248,379 246,379 242,376 240,372 238,372 235,366 229,361 227,357 235,355" fill="#2d4763"/><polygon points="395,508 403,508 404,517 408,518 408,517 413,518 415,521 422,530 423,536 436,548 438,548 438,549 448,555 454,556 460,563 460,569 462,574 456,573 455,570 451,570 447,567 444,563 436,560 432,556 430,552 423,549 419,548 407,536 407,533 403,525 400,525 395,518" fill="#243046"/><polygon points="765,549 817,549 817,549 828,551 832,555 832,560 830,560 830,562 812,562 812,563 806,563 804,566 794,567 794,564 791,562 779,562 779,560 778,562 764,562 763,560 763,558 764,558 763,551 765,549" fill="#293852"/><polygon points="244,550 251,550 253,552 251,575 253,582 255,582 233,588 233,582 232,582 235,573 236,567 243,563 243,560 231,566 231,569 228,570 228,586 231,588 220,590 221,589 224,579 224,575 220,566 221,566 222,559 227,555 229,555 232,551 232,555 239,552 244,551" fill="#1b2740"/><polygon points="765,451 769,451 769,452 784,452 786,451 787,455 790,455 787,463 776,465 776,469 779,469 779,472 767,472 764,474 757,474 757,476 735,474 735,477 728,472 731,465 739,463 739,461 742,458 761,456 765,452" fill="#a1b1ae"/><polygon points="767,433 775,433 775,435 783,441 784,441 784,446 776,447 776,450 765,451 761,455 761,456 742,458 739,461 739,463 735,463 726,463 723,461 723,452 724,452 724,447 727,444 737,448 741,448 741,444 743,444 743,441 749,443 756,440 756,441 765,441 767,440" fill="#3f5b74"/><polygon points="91,56 94,83 95,86 86,90 79,92 78,89 78,97 65,105 68,109 61,112 63,109 58,100 56,100 55,112 56,78 56,66 56,64 60,63 57,67 61,70 57,78 60,82 67,82 65,87 75,78 80,74 87,70 84,66 91,71 87,64 91,60" fill="#d4c0a0"/><polygon points="82,118 83,118 86,124 90,124 93,122 97,124 94,144 94,153 93,153 94,168 95,175 94,175 93,164 88,164 87,169 87,171 76,169 82,167 82,161 79,160 79,150 72,150 72,148 70,146 71,137 72,135 70,135 70,131 72,128 79,123 82,122" fill="#c1af93"/><polygon points="588,395 597,396 598,398 597,402 600,403 600,406 609,415 613,415 611,418 611,421 608,421 609,431 604,431 604,425 594,425 594,426 590,425 590,436 589,436 589,432 582,432 582,435 579,435 574,426 574,417 570,415 570,414 574,413 574,410 578,409 588,399" fill="#bdb5a2"/><polygon points="845,557 864,557 864,558 872,559 894,559 894,562 899,562 902,567 902,569 849,564 849,566 843,567 839,567 839,569 832,567 828,569 828,570 813,570 813,571 806,571 782,575 782,573 784,573 787,570 794,567 798,567 798,566 804,566 830,562 832,559 845,559" fill="#d5c7ac"/><polygon points="853,384 855,384 871,390 871,391 887,396 883,399 876,407 875,403 853,407 853,405 845,402 845,405 849,411 845,410 840,413 839,418 815,417 821,414 821,411 820,403 821,402 825,405 830,407 843,409 843,406 838,400 840,400 846,391 846,392 847,390 853,390" fill="#1e3754"/><polygon points="206,437 214,441 210,443 205,454 201,470 203,470 199,480 209,478 209,480 207,482 202,487 210,487 207,493 196,491 196,481 194,476 195,470 194,470 190,465 188,477 187,481 179,473 178,469 180,472 179,463 181,451 184,454 192,452 187,446 187,443 206,439" fill="#e0d2b6"/><polygon points="63,405 64,405 67,418 67,421 69,428 72,428 73,431 73,435 68,439 72,437 73,440 72,444 71,448 73,448 68,459 68,463 72,465 69,469 68,465 67,470 63,470 58,467 58,458 64,456 63,455 57,451 54,451 53,456 53,413 58,409 63,406" fill="#e0d2b6"/><polygon points="363,129 369,129 369,131 376,133 377,139 380,139 380,149 391,149 392,153 393,153 393,159 388,159 387,161 371,163 371,164 367,167 365,167 362,169 354,169 355,159 354,159 354,154 353,154 353,149 359,148 359,145 363,145 365,144 365,139 363,139" fill="#212d44"/><polygon points="488,544 510,548 526,549 531,551 541,551 553,554 574,556 607,556 615,555 618,558 620,556 654,556 663,560 667,563 664,564 654,560 635,562 630,560 627,562 626,562 611,562 608,560 568,559 557,558 530,555 523,554 505,551 500,549 493,548 488,548" fill="#979488"/><polygon points="87,542 91,542 91,544 94,544 94,548 87,555 87,558 91,558 91,573 88,575 88,582 91,584 93,590 91,589 73,589 73,592 69,592 67,585 66,585 66,575 72,569 73,556 80,555 80,551 84,551 84,543 87,543" fill="#1b2740"/><polygon points="194,221 205,221 205,227 205,235 203,235 202,241 199,241 198,243 196,239 194,239 192,246 181,254 183,254 181,261 179,261 171,257 171,258 160,257 161,256 160,251 161,250 161,243 165,243 171,241 173,234 180,234 183,228 190,226 190,223 194,223" fill="#a1b1ae"/><polygon points="330,379 332,387 335,387 339,390 340,387 343,390 347,395 340,407 337,410 337,402 335,402 329,406 332,406 329,411 324,409 317,407 315,417 310,418 304,418 300,418 296,417 295,414 295,411 296,409 303,410 306,407 314,390 325,388 326,388 330,381" fill="#e1ceae"/><polygon points="578,475 590,477 597,477 600,480 600,481 607,482 609,482 615,485 615,487 620,491 623,491 630,495 630,496 626,497 623,499 618,499 615,497 605,497 611,507 611,511 598,503 596,503 589,497 588,492 582,487 578,487 579,484 577,481 578,477" fill="#a1b1ae"/><polygon points="455,432 462,437 466,437 477,440 478,439 481,432 484,435 486,437 492,440 496,444 493,447 493,446 489,452 485,452 486,465 496,467 496,472 493,481 495,481 493,487 493,485 490,482 484,478 482,470 475,463 471,459 467,448 462,444 455,435" fill="#96a09d"/><polygon points="840,453 846,458 836,465 828,469 828,472 824,477 820,485 821,489 832,493 843,497 827,496 824,496 819,497 810,497 808,496 804,497 799,499 784,502 787,499 790,493 793,491 802,482 809,478 813,474 824,466 827,466 829,463 836,458 840,455" fill="#e0d2b6"/><polygon points="91,466 97,466 99,466 101,469 109,473 116,474 116,476 123,480 125,480 130,485 130,488 127,489 120,495 120,493 112,496 109,496 109,489 106,492 93,493 93,491 95,482 94,482 84,474 86,480 84,481 79,470 80,469 87,467 91,467" fill="#a1b1ae"/><polygon points="845,421 851,429 843,432 839,440 829,440 828,444 823,441 819,446 813,448 809,452 802,451 793,448 795,451 791,455 787,455 786,451 769,452 776,450 782,447 790,446 795,443 806,439 813,436 817,439 819,435 821,433 832,429 838,426 845,422" fill="#b8b6a7"/><polygon points="105,550 106,551 113,551 114,558 119,560 119,567 121,567 121,570 123,570 121,581 124,584 124,588 127,588 127,592 112,592 112,590 102,590 101,592 101,589 99,589 101,582 96,581 96,575 101,574 99,559 102,559 105,556" fill="#1b2740"/><polygon points="866,533 876,534 862,540 866,541 875,543 883,540 890,541 901,541 903,556 901,558 894,552 896,547 892,545 858,551 857,556 845,559 832,555 825,551 829,549 835,551 842,551 825,547 828,540 842,540 847,541 857,544 862,541 860,538 866,534" fill="#2d4763"/><polygon points="281,166 296,166 296,168 288,176 284,178 283,186 279,190 279,194 277,194 277,197 279,197 277,216 269,216 269,215 265,213 260,213 261,212 261,197 262,197 265,182 268,180 268,178 273,172 276,172 276,182 280,182 280,171 281,171" fill="#1b2740"/><polygon points="827,457 829,457 829,463 827,463 824,466 820,472 813,474 812,478 809,478 806,482 802,482 801,485 801,482 795,482 794,480 783,480 783,477 757,474 764,474 767,472 779,472 780,474 786,474 786,469 801,466 794,465 794,461 827,458" fill="#2c445f"/><polygon points="697,551 701,551 701,555 700,556 690,556 693,558 691,566 687,566 687,567 683,569 682,580 672,578 671,575 664,575 637,578 637,574 634,575 634,573 639,571 639,569 660,566 660,564 664,564 680,559 680,556 691,555 691,552 697,552" fill="#e1ceae"/><polygon points="356,433 363,443 359,443 352,448 351,452 346,456 344,461 337,462 332,466 324,467 303,473 304,463 307,463 307,455 311,462 314,466 321,466 324,465 320,462 321,459 333,455 335,443 332,443 335,441 337,440 340,439 344,440 356,436" fill="#a1b1ae"/><polygon points="641,513 649,513 661,518 661,519 664,522 668,522 674,523 674,525 683,528 690,528 687,533 687,544 680,541 674,541 670,533 672,533 667,530 667,532 654,533 649,530 646,534 646,529 641,526 634,526 630,522 630,518 642,515 641,514" fill="#2d4763"/><polygon points="102,349 108,353 110,354 113,359 127,366 127,373 124,380 121,379 116,380 113,373 109,379 108,384 95,390 95,383 97,387 102,383 101,373 99,372 91,369 93,365 86,365 87,362 90,358 90,361 94,359 99,358 101,358 102,350" fill="#a1b1ae"/><polygon points="143,272 149,272 150,276 160,279 160,286 162,291 161,291 161,295 160,295 161,297 160,310 162,312 162,321 157,323 149,318 149,316 151,316 151,313 149,313 149,309 147,309 146,303 140,299 145,288 145,284 143,284 145,273 143,273" fill="#304c67"/><polygon points="711,473 723,474 731,477 731,474 732,474 737,477 739,480 746,480 750,481 750,482 754,482 768,484 769,481 779,482 783,484 783,485 773,488 732,488 731,492 713,489 711,489 711,485 709,482 706,482 706,478 705,474 711,474" fill="#899a9e"/><polygon points="633,572 637,573 637,574 664,578 672,578 678,580 682,577 701,580 708,581 742,581 746,578 761,577 764,580 754,582 732,585 723,585 701,584 668,581 633,580 623,582 616,586 622,581 609,580 602,580 612,577 626,575 633,573" fill="#d5c7ac"/><polygon points="71,400 87,400 87,413 79,414 84,415 84,418 86,418 82,424 82,425 88,425 88,426 86,432 95,433 95,443 94,444 91,444 88,443 83,439 79,439 76,435 73,431 72,431 72,428 69,428 69,424 69,405 71,402" fill="#2f445d"/><polygon points="763,160 772,163 779,171 778,172 768,172 767,176 763,179 763,174 750,171 750,182 747,189 739,183 739,175 727,176 728,185 720,190 717,185 723,178 721,167 728,172 732,165 737,171 735,167 742,161 752,165 768,167 763,163" fill="#b4a78f"/><polygon points="214,551 221,554 218,560 217,560 216,567 214,567 212,574 212,582 213,582 216,590 196,589 195,589 196,582 193,567 194,567 194,570 198,570 195,564 196,556 199,554 202,554 203,556 202,563 205,563 205,559 209,555 214,552" fill="#1e2e49"/><polygon points="146,319 151,321 153,325 147,331 153,331 154,327 157,332 158,339 164,347 166,354 166,358 166,362 173,364 176,365 169,366 164,368 161,369 160,372 157,366 150,362 154,357 146,350 143,346 140,347 140,344 143,339 146,328" fill="#1e3754"/><polygon points="269,420 276,422 283,426 284,428 280,432 284,435 285,447 287,447 291,452 284,469 283,461 276,461 273,465 268,462 269,458 269,455 273,448 266,441 281,443 281,440 279,432 276,431 263,433 262,432 268,426 269,421" fill="#b2b2a5"/><polygon points="754,493 763,493 763,493 784,493 784,502 775,506 775,507 771,507 771,511 767,513 767,515 763,515 763,508 738,507 741,504 738,502 738,497 746,499 745,493 754,493" fill="#2e4059"/><polygon points="53,490 54,490 54,506 56,508 60,506 60,508 61,508 64,517 63,523 65,522 68,525 65,540 65,543 64,543 61,558 56,560 54,560 54,590 60,590 53,592 52,590 52,579 53,579 54,533 54,529 53,529" fill="#cbbfa9"/><polygon points="689,400 697,400 698,400 704,402 704,406 701,410 702,410 704,417 705,422 694,426 687,428 678,431 678,428 676,418 682,418 687,414 687,411 680,413 675,413 668,413 670,407 667,403 671,403 683,409 683,403 689,400" fill="#504940"/><polygon points="94,61 102,61 102,66 105,66 106,75 108,75 108,81 106,89 110,89 109,94 114,94 113,101 109,103 109,108 106,108 106,109 105,109 105,98 99,97 98,123 97,104 93,105 93,86 95,86 95,83 94,83" fill="#d5c7ac"/><polygon points="425,403 432,403 433,406 440,407 445,413 460,413 463,415 463,418 455,417 456,422 451,424 451,426 456,432 455,433 451,432 451,436 447,437 447,441 443,441 443,433 437,429 433,420 429,418 425,413" fill="#e1ceae"/><polygon points="306,480 309,480 311,482 314,485 320,485 322,496 322,488 333,489 333,492 334,492 330,504 330,507 329,507 325,504 325,514 322,514 314,504 313,511 311,511 306,508 307,504 305,497 300,493 300,489 303,485 306,485" fill="#98a5a2"/><polygon points="586,516 592,517 594,517 601,519 604,521 611,523 612,526 619,530 627,532 633,533 619,533 623,540 615,543 615,540 609,533 603,536 592,534 579,533 574,528 581,525 581,518 582,521 585,523 589,521 586,521 586,517" fill="#1e3754"/><polygon points="862,423 871,423 871,431 860,441 854,446 851,446 847,452 840,452 840,455 836,455 834,451 832,448 827,448 827,450 823,448 823,444 830,440 834,440 834,441 842,440 843,432 849,432 851,426 857,426 857,424 862,424" fill="#4b6980"/><polygon points="173,282 175,282 176,286 184,287 184,295 186,295 186,303 187,308 186,308 187,313 179,313 179,309 173,309 173,305 166,303 165,305 166,318 162,320 162,312 160,301 161,301 160,295 161,295 162,287 165,284 173,283" fill="#364a61"/><polygon points="552,533 563,533 563,534 567,534 567,536 572,536 574,538 578,538 578,544 579,544 579,548 578,548 578,551 575,551 575,554 553,554 553,552 541,551 544,548 544,544 545,544 545,534 552,534" fill="#e1ceae"/><polygon points="873,569 901,570 902,574 903,588 887,588 887,586 861,586 861,584 866,580 855,580 855,577 861,575 865,571 865,570 866,570 865,578 866,578 873,575 873,581 877,581 879,584 887,584 879,580 877,575 873,573" fill="#98a5a2"/><polygon points="467,482 470,482 489,495 490,499 497,502 500,502 500,508 500,513 501,513 493,513 493,510 488,506 475,506 475,503 469,499 470,507 466,504 463,504 460,496 458,495 458,489 460,488 469,488 470,487 467,485" fill="#a4a99e"/><polygon points="265,475 284,477 288,476 295,480 300,478 306,478 303,485 300,492 299,488 296,488 288,491 283,496 287,500 287,502 281,502 281,506 280,503 274,496 273,496 274,491 276,485 274,481 272,485 268,485 265,481" fill="#e0d2b6"/><polygon points="389,556 395,556 396,562 404,570 404,573 406,573 404,585 407,585 407,588 404,588 406,590 387,590 387,582 379,575 379,571 382,573 387,569 387,559 389,558" fill="#1b2740"/><polygon points="317,536 321,541 317,543 299,551 303,556 300,563 298,559 291,569 288,570 285,573 285,571 280,564 277,564 274,562 276,556 267,552 270,552 280,552 280,551 284,549 295,549 300,547 302,544 314,538 317,537" fill="#9fa199"/><polygon points="274,281 279,281 284,288 284,291 288,303 291,305 295,313 295,316 298,316 287,321 287,317 284,312 281,310 281,306 279,303 276,303 270,301 269,303 262,302 261,301 262,294 268,291 268,288 270,283 274,282" fill="#364356"/><polygon points="717,379 727,383 730,385 720,384 713,385 700,384 694,387 686,388 682,391 672,391 661,391 657,391 644,391 634,392 604,390 596,388 634,388 638,388 650,388 653,387 668,387 675,384 696,383 705,380 717,380" fill="#6a7175"/><polygon points="499,479 504,481 508,487 508,489 512,491 516,491 521,493 525,503 529,497 538,502 542,506 545,513 551,515 553,515 552,521 545,518 525,513 522,521 518,518 514,497 510,496 505,496 504,491 504,485 499,484" fill="#1e3754"/><polygon points="749,541 754,541 754,551 757,554 764,555 764,558 730,558 730,559 716,559 716,560 707,562 708,555 711,555 711,552 717,549 717,548 738,548 738,547 741,547 741,544 749,543" fill="#a1b1ae"/><polygon points="903,395 905,395 899,420 896,424 888,428 886,428 884,431 871,440 868,440 864,444 854,450 849,451 851,446 854,446 854,443 871,429 873,429 873,425 880,421 881,418 884,415 888,414 895,407 901,405 903,402" fill="#e0d2b6"/><polygon points="183,254 190,254 190,257 196,257 196,260 202,260 202,265 206,267 205,277 203,277 205,287 198,288 198,290 191,290 184,283 184,275 191,272 191,271 188,268 188,264 182,262 182,258 183,258" fill="#a1b1ae"/><polygon points="75,295 79,297 79,303 82,306 84,306 83,323 78,323 78,321 71,318 71,329 67,329 67,327 63,327 63,323 60,323 58,318 54,318 56,310 63,309 63,305 65,305 67,298 75,297" fill="#98a5a2"/><polygon points="860,370 862,370 864,373 872,373 872,374 881,376 881,380 887,380 887,381 890,380 890,381 895,383 902,383 902,390 898,390 898,391 883,391 883,392 871,391 871,390 862,391 861,388 858,388 857,376 860,376" fill="#3f5b74"/><polygon points="258,477 259,477 261,481 261,493 261,497 266,497 268,493 276,504 272,506 270,503 262,513 259,513 257,515 257,519 254,519 253,521 251,515 244,515 235,521 235,511 244,504 253,502 253,499 257,492 258,492" fill="#a3a49a"/><polygon points="895,454 902,454 903,481 896,480 896,478 875,478 875,480 872,480 869,477 872,474 876,474 876,473 859,473 859,472 880,472 879,463 883,459 887,459 887,458 891,458 891,455 895,455" fill="#4d6a82"/><polygon points="67,130 71,130 69,135 72,135 71,137 71,144 69,144 69,146 73,150 72,165 69,165 69,168 68,168 68,164 67,165 61,164 58,168 55,167 55,135 56,135 56,133 63,133 63,135 67,134" fill="#c1af93"/><polygon points="150,367 157,367 160,373 173,377 176,377 176,379 188,379 184,383 186,387 181,387 181,388 179,388 173,391 173,392 171,392 171,395 164,396 160,399 161,395 158,395 160,394 154,380 153,373 150,372" fill="#717778"/><polygon points="281,349 284,349 285,354 291,354 291,358 295,359 291,368 291,372 294,372 294,376 288,376 287,377 287,384 281,384 281,383 276,381 274,373 269,368 274,365 274,362 276,362 276,351 279,354 281,354" fill="#273349"/><polygon points="860,545 892,545 892,547 896,547 894,549 894,552 899,554 901,558 902,558 902,563 899,563 899,562 894,562 894,559 872,559 872,558 857,556 857,551 858,551 858,547 860,547" fill="#31425b"/><polygon points="119,316 127,317 130,324 130,325 127,325 135,336 135,335 140,336 140,344 140,347 143,346 142,350 142,349 136,342 131,342 131,347 134,353 131,353 131,351 123,346 112,344 111,332 117,321 119,321" fill="#2d4763"/><polygon points="346,284 350,286 351,286 352,290 355,297 355,305 358,312 361,316 358,316 359,317 362,320 365,325 365,336 359,332 356,329 355,329 354,325 351,316 350,310 344,310 339,301 343,301 346,288" fill="#1b2740"/><polygon points="366,454 370,458 376,458 380,461 380,467 377,476 373,485 371,485 367,489 366,482 361,474 358,481 352,481 348,474 346,472 352,466 352,463 361,466 363,473 369,473 365,465 362,462 366,459" fill="#a1b1ae"/><polygon points="879,328 888,329 888,332 886,332 887,340 883,340 883,344 886,346 887,350 881,351 879,357 871,353 869,353 869,357 865,357 864,353 862,353 862,340 864,340 864,338 871,338 871,331 879,331" fill="#a1b1ae"/><polygon points="640,218 648,224 650,224 646,221 653,219 656,226 657,228 660,223 663,228 644,235 645,242 656,242 654,236 661,235 672,242 667,245 661,249 659,245 654,249 642,249 640,239 640,227 640,220" fill="#c1af93"/><polygon points="471,466 477,466 477,469 482,470 484,478 486,478 490,482 490,485 495,487 496,492 500,496 499,502 497,502 497,499 490,499 489,495 481,492 470,481 466,481 466,472 469,470 469,467 471,467" fill="#28435f"/><polygon points="341,311 348,312 348,314 350,325 351,325 352,335 351,335 351,339 348,339 344,343 344,342 335,342 333,343 333,336 329,332 326,331 326,325 333,327 335,324 341,324 340,320 340,312 341,312" fill="#21334d"/><polygon points="339,459 343,461 343,463 345,472 344,472 344,474 343,473 339,474 336,481 333,478 324,478 324,480 320,478 318,485 314,484 309,482 309,480 303,478 303,473 324,470 332,466 333,462 339,461" fill="#c7bfaa"/><polygon points="289,320 296,320 303,321 303,327 300,329 305,329 310,338 310,343 313,343 313,347 314,351 311,351 311,358 306,354 300,349 298,349 298,343 295,339 292,340 292,333 289,333 288,325 289,325" fill="#1b2740"/><polygon points="147,513 158,522 161,522 162,522 172,523 176,522 180,519 175,525 165,538 164,538 162,526 153,525 149,525 150,534 147,534 140,534 138,528 131,534 130,530 127,528 132,522 138,522 147,514" fill="#1e3754"/><polygon points="902,395 903,395 901,405 895,405 888,414 886,414 881,418 880,421 873,425 873,429 871,422 857,424 857,420 865,413 871,413 876,409 876,407 883,403 888,403 894,400 894,399 896,396 902,396" fill="#b8b6a7"/><polygon points="411,460 414,460 414,462 417,463 417,467 419,469 419,476 422,477 422,480 425,482 425,487 419,496 417,496 417,492 406,492 406,489 402,489 402,487 403,487 402,474 406,474 407,465 411,465" fill="#556b7a"/><polygon points="496,470 508,474 511,474 504,481 503,478 499,484 501,487 505,487 504,488 510,496 511,500 516,497 516,504 518,516 514,516 510,514 508,504 503,503 499,502 495,489 495,481 493,473 496,472" fill="#3b5a73"/><polygon points="320,542 324,542 324,544 328,547 328,559 332,559 330,563 330,582 329,582 328,564 326,563 317,562 317,563 313,564 309,560 306,560 306,564 303,556 299,552 299,551 309,551 317,543 320,543" fill="#b4ae9d"/><polygon points="791,352 794,352 795,361 797,366 790,366 788,369 787,369 786,373 775,374 776,376 775,383 768,380 765,380 765,372 764,366 773,365 773,361 780,358 783,358 783,355 787,353 791,353" fill="#3e5c76"/><polygon points="783,229 784,235 787,241 791,236 795,232 798,241 801,243 802,245 814,242 819,247 813,246 805,251 788,256 784,253 778,253 775,246 775,241 768,236 771,232 778,246 782,238 783,230" fill="#d4c0a0"/><polygon points="52,399 53,399 53,529 54,529 53,533 53,579 52,579 52,590 53,592 72,592 72,593 49,590 50,570 52,570 50,569 50,558 52,558 52,534 52,417 50,417 50,414 52,414" fill="#f7e8cd"/><polygon points="93,404 104,404 104,409 108,409 109,421 114,420 114,422 117,422 116,426 110,428 109,433 101,432 101,435 98,435 97,425 95,425 94,418 93,418 93,410 91,411 91,406 93,406" fill="#3c4f65"/><polygon points="672,497 691,497 697,497 697,499 708,497 708,499 713,502 717,502 717,503 728,504 735,503 735,506 738,506 706,506 706,507 702,507 700,515 698,510 694,510 691,507 679,502 672,499" fill="#2d4763"/><polygon points="83,520 90,521 90,522 87,522 88,528 95,528 94,533 88,534 88,541 84,543 84,551 76,544 73,544 71,548 67,549 68,534 71,534 75,528 83,528 83,523 80,523 83,521" fill="#1b2740"/><polygon points="656,539 664,543 671,543 672,539 674,541 683,544 690,543 697,545 691,552 691,555 685,556 679,558 676,555 676,548 670,547 663,556 655,556 651,555 651,551 656,547 653,547 656,541" fill="#636a6f"/><polygon points="637,280 641,283 648,286 653,284 660,288 664,297 672,301 670,302 663,298 657,306 652,302 657,298 660,292 657,291 654,294 644,297 641,299 637,298 629,297 635,292 638,288 637,287" fill="#c1af93"/><polygon points="112,398 113,398 120,399 120,405 124,407 127,409 134,418 134,421 139,422 142,425 144,428 142,435 140,435 139,433 138,432 132,433 124,422 114,422 112,411 112,407 110,399 112,399" fill="#1e3754"/><polygon points="310,516 315,516 321,521 321,523 320,523 317,536 313,543 302,544 295,548 295,545 294,545 293,541 293,534 294,534 296,532 296,528 300,528 306,533 309,530 307,525 311,519 310,519" fill="#a1b1ae"/><polygon points="521,525 531,525 531,526 536,526 536,528 541,528 545,532 544,548 542,549 536,549 536,545 519,543 514,541 514,538 518,538 518,534 527,534 527,532 530,532 529,528 522,528 521,526" fill="#6a7175"/><polygon points="113,374 116,380 119,380 124,380 124,384 129,398 132,400 134,400 131,410 129,402 127,402 123,402 123,398 119,399 113,394 114,392 109,395 105,392 100,392 104,388 108,384 113,376" fill="#888d8b"/><polygon points="84,230 90,230 91,242 76,246 75,242 58,242 58,239 57,239 57,242 54,242 54,249 53,249 53,231 84,231" fill="#3f5b74"/><polygon points="388,478 393,478 399,487 400,487 397,491 399,499 404,502 406,507 411,514 414,514 410,518 410,517 404,513 403,513 400,508 400,507 395,515 391,513 387,502 387,489 389,481 388,481" fill="#253d58"/><polygon points="887,339 891,340 896,342 894,343 896,346 898,362 903,362 905,368 905,370 902,372 895,372 891,370 891,369 884,368 886,365 881,358 879,358 880,355 881,351 886,346 883,344 887,340" fill="#4d6a82"/><polygon points="263,503 270,503 274,506 274,511 279,514 284,514 292,518 293,519 287,525 287,533 279,537 276,537 279,532 279,528 272,519 268,521 270,515 265,514 259,517 259,513 262,510 263,510" fill="#98a5a2"/><polygon points="113,99 116,99 114,105 117,105 117,115 122,115 121,145 119,142 114,142 114,138 112,138 110,130 110,126 109,126 109,122 108,122 108,113 106,113 106,108 109,108 109,103 113,101" fill="#d5c7ac"/><polygon points="653,479 671,479 671,481 674,481 678,485 685,487 689,489 693,493 696,493 696,496 691,497 691,496 675,495 672,492 665,492 664,489 659,492 657,492 653,485 647,484 648,480 653,480" fill="#a1b1ae"/><polygon points="324,336 326,339 333,336 333,344 325,353 321,365 318,365 318,368 315,370 311,370 311,365 307,364 309,358 311,358 311,351 314,351 313,343 315,340 322,340 322,338 324,338" fill="#1b2740"/><polygon points="644,449 649,450 638,459 638,461 630,459 622,462 622,467 619,467 609,465 608,462 603,459 601,459 601,454 608,454 619,454 619,452 630,451 637,451 637,454 642,450 644,450" fill="#78756c"/><polygon points="173,420 176,420 176,421 183,420 194,424 195,435 203,437 202,440 190,440 190,439 184,436 181,436 181,439 176,439 176,432 171,432 171,428 165,424 171,425 171,421 173,421" fill="#6a7175"/><polygon points="877,504 891,504 890,504 891,513 887,513 876,519 877,526 871,526 869,522 865,522 865,518 861,517 862,514 866,514 865,511 868,508 857,508 857,507 861,507 861,506 877,504" fill="#253550"/><polygon points="705,562 709,564 716,564 719,566 719,569 731,562 732,562 743,566 745,567 727,570 720,577 720,575 711,574 698,573 693,571 693,570 685,567 691,566 696,563 696,564 705,563" fill="#1d3351"/><polygon points="608,540 615,540 615,543 631,543 631,541 635,540 642,540 642,552 638,556 620,556 620,558 618,558 618,555 615,555 615,554 611,552 613,552 613,548 612,548 611,541 608,541" fill="#d5c7ac"/><polygon points="123,281 135,281 134,288 136,288 140,292 140,299 132,299 131,302 124,303 124,292 117,288 116,288 114,292 110,292 110,290 108,290 108,284 105,284 105,283 121,283 123,282" fill="#b8b6a7"/><polygon points="132,299 135,299 135,308 138,309 138,312 143,321 146,324 146,328 143,329 140,339 140,336 138,336 127,324 127,317 124,317 122,312 122,308 124,306 123,303 128,302 132,301" fill="#808687"/><polygon points="633,579 668,579 668,581 687,582 687,584 696,585 697,584 701,584 701,585 723,585 723,588 638,588 638,589 634,589 634,588 619,584 620,584 620,586 657,586 657,582 633,581" fill="#b8b6a7"/><polygon points="493,160 495,160 495,169 496,169 496,174 497,179 484,178 484,180 482,180 482,183 485,183 484,186 480,186 478,183 471,183 471,179 475,178 474,169 473,169 473,163 493,161" fill="#e1ceae"/><polygon points="439,155 444,155 444,157 463,157 463,159 470,157 470,160 473,160 473,169 467,168 459,175 459,172 455,172 452,168 451,168 451,171 444,169 444,165 443,165 444,160 439,159" fill="#babaaa"/><polygon points="176,565 187,565 188,574 192,573 192,580 196,582 196,586 195,586 196,592 186,592 186,589 174,588 174,585 176,585" fill="#22324b"/><polygon points="116,289 117,289 124,292 124,303 124,306 123,308 119,306 110,309 105,303 102,312 99,309 99,303 102,302 98,302 97,298 97,291 102,291 106,291 106,290 110,292 116,291" fill="#98a5a2"/><polygon points="624,482 638,484 646,488 649,485 655,489 661,493 659,496 656,500 655,495 652,496 649,499 652,499 655,503 657,508 655,506 649,503 645,500 637,495 629,489 623,487 624,484" fill="#a1b1ae"/><polygon points="183,493 186,493 186,496 188,497 188,504 187,504 186,514 183,515 181,519 177,519 176,522 166,523 166,507 172,507 172,510 173,510 175,503 177,503 177,496 183,495" fill="#2b374c"/><polygon points="400,123 406,124 418,133 419,134 421,139 421,137 425,137 432,142 430,148 422,157 421,157 422,149 421,146 415,146 411,142 411,145 407,145 402,149 400,131 398,126 400,126" fill="#98a5a2"/><polygon points="88,208 94,210 94,215 98,212 106,216 106,223 105,221 98,221 97,224 90,224 76,231 78,227 79,227 78,219 73,219 72,216 76,216 82,209 82,212 86,212 88,209" fill="#9f9c91"/><polygon points="397,394 403,394 407,400 407,405 404,409 407,410 412,414 411,420 408,421 399,420 395,424 395,421 397,421 396,418 397,413 395,409 388,409 382,396 387,400 392,398 397,399" fill="#e0d2b6"/><polygon points="300,428 306,428 307,440 305,441 305,447 306,452 306,454 303,454 303,456 296,456 296,458 291,458 291,452 287,452 287,448 288,444 289,444 289,437 294,436 294,435 300,433" fill="#95a4a3"/><polygon points="291,559 298,559 300,563 306,564 307,569 310,585 306,585 306,581 302,581 302,582 300,581 294,581 294,578 289,578 289,584 288,581 286,580 286,573 288,573 288,570 291,569" fill="#212f48"/><polygon points="236,388 246,388 248,392 254,394 255,396 258,396 261,399 266,399 266,409 255,410 257,406 251,406 251,405 246,405 242,409 242,405 239,403 239,398 235,398 235,390 236,390" fill="#2c3f57"/><polygon points="291,497 294,499 300,506 300,507 311,508 311,511 310,519 307,518 306,514 300,515 303,521 302,528 294,526 294,519 284,518 284,514 283,514 283,506 288,500 291,497" fill="#a1a49c"/><polygon points="131,556 134,556 134,559 139,559 140,575 140,579 143,579 143,585 145,585 145,589 134,592 134,585 131,584 131,581 128,578 128,571 127,567 126,567 127,558 131,558" fill="#1b2740"/><polygon points="218,115 222,116 227,120 227,126 224,128 220,131 217,131 210,137 210,139 207,139 203,137 203,134 201,133 196,124 196,127 196,123 205,124 205,120 212,116 218,116" fill="#c1af93"/><polygon points="247,172 254,172 258,176 258,182 259,182 259,185 257,187 255,205 254,205 254,210 253,210 248,201 243,195 244,176 247,176" fill="#2b3245"/><polygon points="247,277 254,277 255,280 262,280 263,284 265,284 265,292 261,297 262,307 258,307 255,299 246,298 246,279 247,279" fill="#283147"/><polygon points="787,423 790,423 790,425 806,429 809,429 809,437 805,439 805,433 798,436 795,436 795,443 791,443 784,446 783,437 779,436 779,432 780,432 780,428 780,424 787,424" fill="#7d9199"/><polygon points="802,394 813,395 821,411 820,415 809,418 813,422 810,425 810,426 813,429 805,428 805,421 804,417 801,417 801,414 799,410 802,409 804,403 802,399 799,395 802,395" fill="#7f8d94"/><polygon points="779,486 790,486 790,495 787,496 786,500 784,500 784,492 745,493 746,499 741,499 739,496 735,496 735,493 731,493 732,488 773,488 773,487 779,487" fill="#375876"/><polygon points="207,358 214,368 218,369 221,365 225,366 225,370 229,373 239,376 240,381 238,384 240,388 231,385 228,385 224,383 214,377 214,373 212,369 207,366 205,366 207,365" fill="#2d4763"/><polygon points="720,507 738,508 738,510 743,510 743,511 745,510 752,510 752,508 762,508 762,515 757,525 753,525 753,523 746,525 746,518 738,518 734,514 724,514 724,511 720,510" fill="#24334b"/><polygon points="464,207 474,207 474,208 480,209 480,212 484,212 484,224 473,223 470,230 466,231 466,230 462,230 462,219 461,219 461,216 463,213 463,208 464,208" fill="#b8b6a7"/><polygon points="653,494 656,500 659,500 663,495 667,496 668,499 674,500 679,506 691,507 698,510 689,514 676,511 676,510 670,507 661,511 659,511 655,503 652,499 650,499 653,495" fill="#778c95"/><polygon points="455,417 458,417 458,418 466,417 469,425 475,428 480,429 480,432 477,432 478,439 477,440 469,440 466,437 462,437 460,433 456,431 451,426 451,424 456,422 455,421" fill="#a1b1ae"/><polygon points="210,86 214,87 214,89 216,87 224,89 228,94 228,93 235,94 233,100 227,97 227,98 220,100 220,101 212,101 212,102 203,101 198,100 198,94 202,90 210,87" fill="#d5c7ac"/><polygon points="119,62 120,62 121,67 121,70 121,82 120,83 121,93 123,93 117,115 117,105 114,103 116,103 109,94 110,90 112,85 113,85 116,72 116,67 117,63 119,63" fill="#e1ceae"/><polygon points="344,472 348,474 354,478 352,481 346,487 344,482 339,480 340,482 337,488 339,495 335,495 324,489 322,496 321,488 320,478 322,480 333,478 336,481 341,474 344,474" fill="#bdb7a4"/><polygon points="847,400 850,400 853,407 857,403 875,403 876,405 876,409 872,409 871,413 865,413 862,418 857,420 857,426 851,426 853,415 849,415 850,409 845,405 845,402 847,400" fill="#27344b"/><polygon points="850,486 879,487 877,493 871,493 871,496 842,496 842,495 838,495 838,489 850,487" fill="#2b3951"/><polygon points="578,538 589,538 589,540 592,540 592,545 604,545 605,547 605,552 604,552 605,556 598,556 598,555 575,555 575,556 575,551 578,551 578,548 579,548 579,544 578,544" fill="#e1ceae"/><polygon points="411,142 415,142 415,146 421,149 422,149 421,157 414,156 413,161 407,161 403,164 403,163 396,164 396,161 394,159 394,153 402,149 406,149 407,145 411,145" fill="#a7a498"/><polygon points="433,190 434,190 436,194 444,197 444,209 448,210 448,215 445,215 440,210 438,215 428,216 428,206 425,206 425,204 428,204 428,193 433,191" fill="#9fa39b"/><polygon points="820,442 823,448 824,450 834,451 836,458 834,458 830,461 821,456 821,455 804,458 792,456 792,455 795,451 793,448 804,446 808,450 813,452 813,448 820,443" fill="#8a9ca0"/><polygon points="704,477 706,478 709,482 709,485 711,485 711,489 706,497 702,497 702,499 696,493 693,493 689,489 685,489 687,487 687,484 684,484 684,480 686,478 704,480" fill="#a1b1ae"/><polygon points="871,499 884,500 898,500 894,503 891,506 877,503 861,507 857,508 853,510 845,511 834,514 825,518 824,515 836,508 845,506 849,504 851,502 860,500 871,500" fill="#3f5b74"/><polygon points="690,445 693,445 690,447 689,452 683,451 675,454 676,461 671,462 667,465 667,462 664,462 663,472 663,465 649,465 655,455 665,454 665,452 676,448 690,446" fill="#e1ceae"/><polygon points="507,459 514,466 519,474 522,474 527,482 531,487 534,491 534,497 529,493 526,493 526,489 519,485 515,480 511,474 508,474 505,472 505,469 502,462 507,461" fill="#a1b1ae"/><polygon points="340,408 347,408 348,409 348,414 352,415 354,429 359,431 359,433 356,433 356,436 351,436 351,435 346,436 344,425 337,426 337,424 337,424 337,414 340,414" fill="#a1b1ae"/><polygon points="426,576 430,577 430,578 434,580 437,580 437,578 443,580 444,576 448,576 452,578 455,581 455,585 452,586 452,589 440,589 425,590 424,589 424,581 426,581" fill="#98a5a2"/><polygon points="95,311 102,311 104,314 105,314 105,318 112,318 113,323 117,323 117,331 110,335 105,335 105,333 102,335 99,327 97,327 97,324 95,324 95,313 95,313" fill="#374d66"/><polygon points="743,387 746,387 747,395 756,400 758,403 758,407 754,407 752,413 747,413 746,415 743,415 745,407 741,398 735,398 735,395 734,395 737,391 737,388 743,388" fill="#476279"/><polygon points="207,446 209,446 209,458 212,463 218,463 218,466 221,467 216,470 216,472 212,473 212,478 201,478 199,474 203,472 203,470 201,470 205,454 205,450 207,447" fill="#e1ceae"/><polygon points="832,468 836,468 836,469 842,470 842,473 846,477 849,477 849,481 832,482 829,485 829,491 828,489 821,489 820,480 824,477 824,473 827,473 828,469 832,469" fill="#8ca2aa"/><polygon points="104,267 109,268 110,272 116,276 127,279 127,280 123,280 121,283 105,283 108,284 108,290 102,292 101,287 99,287 99,283 96,276 99,276 99,269 104,269" fill="#98a5a2"/><polygon points="80,293 86,294 86,298 88,295 97,293 98,302 102,302 102,303 99,303 95,310 95,313 94,313 94,323 93,323 91,317 87,314 84,306 82,306 80,303" fill="#b8b6a7"/><polygon points="402,98 406,98 407,103 411,103 411,107 414,107 414,111 415,111 414,128 410,128 410,122 407,120 407,113 393,116 393,115 393,108 400,107 399,100 402,98" fill="#e0d2b6"/><polygon points="214,377 218,377 228,383 228,385 231,385 236,387 235,398 232,395 225,395 222,395 217,391 207,390 204,388 204,385 209,388 212,388 212,384 205,379 214,379" fill="#1e3754"/><polygon points="151,320 154,320 165,320 168,331 173,333 173,339 171,339 168,336 166,347 160,344 158,339 157,339 154,332 154,327 153,327 147,331 147,327 153,321 151,321" fill="#2d4763"/><polygon points="473,223 484,224 484,230 489,230 489,234 490,238 484,241 480,236 480,239 475,239 475,242 473,242 466,235 460,235 467,231 467,230 470,230 470,227 473,224" fill="#979488"/><polygon points="598,401 607,402 607,405 612,411 615,411 622,420 624,420 624,422 622,424 618,435 611,435 608,421 611,421 611,418 613,418 609,415 600,406 600,403 598,402" fill="#e1ceae"/><polygon points="378,476 381,478 384,478 384,481 382,481 384,504 377,504 377,506 371,504 371,500 368,495 368,489 371,488 373,480 378,477" fill="#e1ceae"/><polygon points="381,531 384,531 384,533 388,538 392,543 391,549 385,548 385,545 381,547 378,558 378,556 374,556 374,547 369,547 369,544 371,540 374,537 373,532 381,532" fill="#8c9391"/><polygon points="697,442 709,442 711,448 711,451 713,451 713,459 716,462 717,462 717,465 713,465 711,465 711,461 705,459 697,456 697,454 691,454 691,447 693,443 697,443" fill="#a5aaa2"/><polygon points="490,446 501,447 501,448 510,448 511,451 519,451 515,456 515,465 512,465 508,459 505,462 500,463 499,461 496,461 489,454 489,447 490,447" fill="#e1ceae"/><polygon points="274,304 279,306 281,306 280,313 280,318 280,331 279,331 273,327 272,324 269,336 266,328 263,327 261,321 261,317 263,314 268,314 270,309 273,309 274,305" fill="#849294"/><polygon points="615,497 618,499 623,497 624,497 633,500 638,500 638,503 642,506 649,507 633,511 633,508 624,507 616,503 616,502 609,502 608,507 607,503 605,497 615,497" fill="#98a5a2"/><polygon points="80,259 93,260 97,264 91,261 76,265 79,269 84,269 94,267 98,272 94,275 97,282 91,283 86,280 86,277 83,277 75,273 70,264 73,264 80,260" fill="#b8b6a7"/><polygon points="898,301 905,301 905,324 903,324 903,327 894,324 894,323 896,323 896,317 890,317 884,313 886,306 898,305" fill="#a1b1ae"/><polygon points="203,331 214,331 214,333 217,335 217,342 220,342 217,344 217,349 218,349 217,353 221,353 221,357 214,357 214,353 209,353 209,351 203,349 203,333 203,333" fill="#1b2740"/><polygon points="810,414 816,414 814,417 827,417 827,418 835,418 836,420 836,426 835,428 823,431 821,432 823,435 817,435 817,431 810,426 810,425 813,425 813,422 810,418" fill="#2f425b"/><polygon points="68,267 69,267 75,273 75,275 78,275 83,279 86,280 88,282 88,287 80,284 75,283 71,287 71,294 64,291 60,290 60,283 63,280 67,269 68,269" fill="#e1ceae"/><polygon points="98,459 106,465 113,470 131,484 129,488 125,480 114,473 101,465 79,467 87,482 91,493 86,485 80,485 74,489 76,484 75,461 83,462 88,462 98,461" fill="#d5c7ac"/><polygon points="505,169 511,169 522,172 522,180 519,180 518,178 514,180 511,180 511,186 516,194 512,195 510,189 501,191 501,186 501,182 498,179 498,174 503,171 505,171" fill="#909fa0"/><polygon points="879,479 896,479 896,480 903,481 903,491 888,491 888,492 884,492 884,493 877,493 879,487 877,487 877,484 879,481" fill="#35475e"/><polygon points="305,270 309,270 311,275 317,275 317,277 321,277 321,282 320,282 321,288 318,288 318,291 311,292 310,288 302,290 301,271 305,271" fill="#9ea098"/><polygon points="456,139 460,139 464,144 463,152 460,152 444,157 444,154 440,154 440,150 438,150 440,141 443,141 444,145 447,145 451,150 452,149 451,139 452,141 456,139" fill="#8b9a99"/><polygon points="562,388 578,388 575,391 586,388 592,395 585,392 572,395 566,395 556,394 548,394 537,395 530,394 521,396 522,392 530,390 538,394 542,391 551,390 562,390" fill="#6a7175"/><polygon points="239,282 243,282 246,286 246,295 242,291 240,297 235,299 231,306 227,306 221,295 221,291 220,291 224,286 224,290 228,290 228,288 235,284 239,284" fill="#a1b1ae"/><polygon points="88,372 99,372 101,377 98,380 98,384 102,383 98,387 97,387 95,383 93,383 93,394 88,392 88,399 83,400 80,379 84,379 86,376 88,376" fill="#98a5a2"/><polygon points="110,428 113,428 114,432 117,433 117,436 116,436 116,448 95,447 95,444 95,444 95,443 95,433 101,435 101,432 105,432 105,433 110,432" fill="#374d64"/><polygon points="216,290 220,290 225,297 227,306 231,306 232,302 236,302 233,303 232,308 224,313 221,314 221,317 214,306 210,306 209,310 206,310 213,298 216,298" fill="#9ca099"/><polygon points="88,343 91,343 90,346 91,351 87,362 83,362 83,364 79,365 76,365 69,369 69,364 69,357 75,355 75,354 73,350 76,347 86,344 88,344" fill="#a9b0a9"/><polygon points="253,531 255,532 261,533 265,536 265,538 268,545 272,547 266,552 266,554 262,548 258,548 250,545 250,549 245,544 246,544 248,541 247,536 253,533" fill="#98a5a2"/><polygon points="879,446 886,446 886,450 883,455 891,454 891,458 883,459 880,472 860,472 861,467 869,467 868,459 873,461 876,458 876,455 871,452 873,452 879,447" fill="#a1b1ae"/><polygon points="123,525 125,525 125,528 130,530 128,537 123,543 123,548 116,548 116,545 105,537 108,537 112,533 112,530 114,530 114,533 117,536 117,526 123,526" fill="#1b2740"/><polygon points="340,344 348,346 352,349 361,350 367,354 363,361 362,364 362,370 358,368 356,365 355,362 352,362 351,357 348,354 348,350 333,349 337,347 340,344" fill="#e1ceae"/><polygon points="210,417 221,417 221,420 228,421 229,428 231,428 229,431 227,431 224,433 220,433 218,436 214,436 214,432 206,431 206,421 209,421 209,418 210,418" fill="#364d64"/><polygon points="197,252 199,252 199,254 205,256 205,258 220,261 220,268 214,272 214,279 203,282 206,267 202,265 202,260 197,260" fill="#828d8f"/><polygon points="347,310 350,313 352,316 354,321 356,332 361,338 365,343 366,343 362,352 361,350 356,349 352,349 348,346 351,339 352,332 351,325 350,325 347,312" fill="#1e3a57"/><polygon points="376,442 381,443 384,447 384,450 388,462 387,462 385,467 385,472 384,478 381,478 376,478 377,470 380,461 377,462 369,456 369,454 377,447 376,447" fill="#a1b1ae"/><polygon points="299,138 311,138 317,145 317,152 321,152 321,153 317,153 313,159 311,159 311,156 298,154 298,141 299,141" fill="#2c3549"/><polygon points="205,350 209,351 214,353 214,357 227,361 229,361 235,366 238,372 240,372 232,374 228,370 225,366 221,366 221,365 217,368 213,366 207,357 205,357" fill="#1b2740"/><polygon points="162,262 165,264 171,269 177,271 181,273 184,276 188,287 186,288 186,287 175,282 172,282 169,276 166,271 166,273 160,268 154,265 155,265 162,262" fill="#a4aba4"/><polygon points="706,506 752,507 745,510 745,511 738,510 720,507 720,510 723,510 717,514 717,515 712,518 706,518 708,523 705,525 701,525 701,513 702,507 706,507" fill="#223955"/><polygon points="202,509 213,510 210,529 198,528 195,537 191,534 191,529 192,529 194,522 198,522 199,510 202,510" fill="#8b9798"/><polygon points="525,177 526,177 527,183 527,182 542,186 545,186 537,191 537,189 529,191 523,191 516,193 516,190 511,180 514,180 518,178 519,180 522,178 525,178" fill="#b4a78f"/><polygon points="366,491 367,491 371,500 371,510 370,517 371,517 369,522 369,515 358,511 356,510 354,521 351,518 350,514 350,511 354,506 358,503 363,493 366,493" fill="#a3a59b"/><polygon points="902,532 905,534 905,543 903,544 898,540 890,540 890,541 883,540 883,541 877,541 877,543 863,540 865,536 876,534 876,533 901,533 902,534" fill="#1e3754"/><polygon points="425,105 426,107 432,108 437,108 437,113 440,120 437,120 437,128 437,131 437,135 434,130 430,130 428,119 425,116 422,116 422,113 421,108 425,107" fill="#828d8f"/><polygon points="443,116 444,118 445,116 452,116 455,123 459,123 459,127 460,127 460,131 455,133 456,139 452,141 451,133 438,128 438,120 443,120" fill="#b8b6a7"/><polygon points="294,339 295,343 298,343 300,349 306,354 309,357 307,364 311,373 310,373 302,366 302,362 299,366 295,366 291,358 291,354 289,350 292,349 294,340" fill="#2d4763"/><polygon points="356,510 358,511 365,511 369,515 369,522 373,523 371,530 373,530 373,534 374,537 371,540 366,534 366,532 359,532 359,525 356,523 356,521 356,521" fill="#b8b6a7"/><polygon points="97,123 98,139 99,139 102,142 102,141 105,144 101,144 112,148 110,149 108,165 105,153 102,165 105,167 108,172 108,175 102,178 98,178 97,149" fill="#aea99a"/><polygon points="448,255 452,257 448,265 459,267 455,261 463,260 460,267 454,272 449,275 444,276 441,282 436,280 432,277 434,273 441,271 438,267 444,264 448,257" fill="#c7b599"/><polygon points="231,517 235,517 235,521 240,521 240,526 236,525 236,532 235,532 236,540 229,536 225,536 225,533 218,533 218,526 224,523 224,521 228,521 231,518" fill="#808788"/><polygon points="421,487 425,487 425,489 434,496 434,500 438,500 440,506 441,506 441,510 437,515 434,515 434,511 430,510 429,504 422,504 419,497 419,488 421,488" fill="#a19d91"/><polygon points="188,499 191,499 194,507 192,510 188,507 183,521 183,526 187,526 183,532 183,534 176,536 175,534 165,534 177,523 183,518 183,515 187,504 188,504" fill="#2d4763"/><polygon points="824,242 830,245 825,254 830,258 831,256 831,260 832,265 835,269 836,275 831,277 827,271 820,267 825,264 814,256 819,254 825,247 820,246 824,243" fill="#c1af93"/><polygon points="273,557 276,557 274,562 277,564 280,564 280,567 281,567 281,573 277,573 273,581 272,578 268,578 268,575 263,575 263,570 265,559 263,558 273,558" fill="#a3a79f"/><polygon points="473,133 478,135 484,138 485,146 482,150 478,145 475,141 470,154 475,160 473,163 470,160 466,157 459,157 463,152 467,148 474,139 473,137" fill="#979488"/><polygon points="248,384 255,384 257,388 262,395 273,394 277,398 277,405 274,405 266,409 266,399 261,399 261,398 255,396 254,394 245,388 245,385 248,385" fill="#1d2a43"/><polygon points="58,390 65,391 65,395 68,395 68,421 67,421 67,418 64,418 64,405 58,409 57,413 53,413 53,398 54,398 54,394 58,394" fill="#99a09c"/><polygon points="225,487 229,487 232,491 232,493 235,496 228,500 229,503 227,503 222,504 217,500 217,513 210,510 213,504 213,496 217,496 220,488 225,488" fill="#8e9591"/><polygon points="362,110 363,110 369,112 369,115 376,118 376,124 367,122 359,122 354,130 354,137 352,137 352,123 352,118 350,111 354,111 359,113 362,111" fill="#8a9694"/><polygon points="518,237 526,237 530,241 530,243 522,243 522,246 518,261 515,261 514,258 510,257 508,250 508,246 507,246 507,241 508,238 510,239 518,238" fill="#a4aca5"/><polygon points="143,258 149,261 143,265 140,268 140,271 136,273 134,276 132,280 127,280 119,276 119,268 124,271 125,264 132,265 134,264 140,260 143,260" fill="#939b98"/><polygon points="721,524 726,524 726,526 727,526 727,537 724,537 724,540 720,540 713,543 713,544 711,544 711,541 707,541 707,533 711,532 711,528 721,525" fill="#2b4764"/><polygon points="499,204 501,204 507,206 507,209 514,213 514,217 512,217 510,220 510,223 507,221 501,224 501,220 496,216 493,216 493,213 491,206 499,205" fill="#98a09a"/><polygon points="738,237 742,242 746,239 742,245 737,245 741,257 735,257 732,261 728,271 723,265 726,261 719,253 724,250 728,241 731,245 735,245 738,238" fill="#c1af93"/><polygon points="341,112 351,113 352,123 354,123 352,134 350,134 347,131 347,127 339,128 339,126 337,126 339,122 328,122 328,118 332,118 335,115 341,115" fill="#828d8f"/><polygon points="277,139 284,142 284,153 280,156 280,160 273,161 270,159 265,159 266,154 264,153 264,150 269,150 270,142 277,142" fill="#708087"/><polygon points="63,358 64,366 68,368 63,370 68,376 68,383 64,385 60,385 56,394 53,381 56,381 58,376 56,373 56,368 53,362 56,361 63,364" fill="#9eaaa9"/><polygon points="84,309 86,309 91,317 93,323 97,324 99,327 99,329 102,332 97,336 97,339 93,339 93,342 88,329 86,327 86,323 84,310 84,310" fill="#bcae98"/><polygon points="120,509 123,509 127,515 128,518 134,517 132,526 125,528 125,525 117,526 117,536 116,533 113,530 113,528 114,528 114,514 114,510 120,510" fill="#4f5b6b"/><polygon points="280,534 285,534 288,544 295,541 295,544 294,544 295,549 284,549 280,551 280,552 273,552 271,544 273,544 274,537 279,537 279,534 280,534" fill="#98a5a2"/><polygon points="465,534 470,534 475,534 475,537 479,540 484,540 488,548 492,549 495,555 495,560 493,560 490,558 489,555 482,551 478,551 473,547 465,538" fill="#c7b599"/><polygon points="56,558 61,558 61,578 63,578 63,582 67,585 67,588 69,590 69,592 55,590 55,560 56,560" fill="#d5c7ac"/><polygon points="344,573 347,573 347,574 356,573 355,581 358,582 356,586 359,586 359,589 341,590 341,582 337,582 337,578 339,578 340,574 344,574" fill="#879292"/><polygon points="830,584 835,584 835,586 887,586 886,589 791,589 791,588 786,588 786,586 830,586" fill="#b8b6a7"/><polygon points="469,499 475,503 475,506 488,508 493,510 497,513 497,514 504,514 499,521 499,519 495,518 490,518 484,517 484,514 473,507 470,507 469,503" fill="#3f5b74"/><polygon points="504,241 507,241 508,246 508,250 510,250 510,257 515,261 518,261 519,264 522,264 518,273 510,273 511,265 499,264 501,260 503,256 504,256" fill="#979488"/><polygon points="798,573 806,574 791,578 783,580 779,581 775,582 768,586 772,588 735,586 732,586 754,584 760,582 764,581 780,578 778,575 782,574 798,574" fill="#b8b6a7"/><polygon points="373,435 381,436 381,443 377,454 366,454 366,450 362,450 362,447 358,450 353,450 359,443 363,443 363,440 367,440 371,439 371,436 373,436" fill="#b8b6a7"/><polygon points="104,126 110,126 112,138 114,138 114,146 112,146 112,148 99,148 99,145 105,144 105,142 104,141 99,142 98,130 102,130 102,127 104,127" fill="#e1ceae"/><polygon points="127,429 134,432 138,432 140,432 140,435 146,440 150,440 142,444 142,447 131,447 131,446 128,441 127,441 128,439 127,433 124,431 127,431" fill="#3a5068"/><polygon points="726,435 743,435 743,437 746,441 743,441 743,444 741,444 741,448 737,444 727,444 726,447 723,447 721,443 715,444 716,441 716,437 726,436" fill="#a1b1ae"/><polygon points="791,577 798,579 801,582 801,584 802,581 805,581 812,577 812,579 806,586 786,586 786,588 770,582 775,582 779,581 779,579 783,578 791,578" fill="#98a5a2"/><polygon points="328,204 329,204 329,206 334,206 332,231 329,232 329,236 326,239 322,239 322,221 325,220 325,213 326,213 326,209 328,209" fill="#254969"/><polygon points="497,219 501,220 501,224 507,224 508,221 511,235 515,235 515,239 508,238 508,241 504,241 504,246 499,241 501,238 495,230 495,227 497,227" fill="#b5b2a2"/><polygon points="185,383 192,383 195,385 202,388 216,392 216,395 212,395 210,400 206,398 202,398 202,396 194,398 194,394 191,394 186,388 186,385 185,385" fill="#6a7175"/><polygon points="860,116 865,120 866,116 875,123 862,123 869,127 866,128 866,137 868,139 873,144 877,152 872,150 862,146 860,138 857,123 860,122 860,119" fill="#c1af93"/><polygon points="456,205 462,205 462,216 460,216 462,230 460,228 456,230 456,228 451,227 451,223 448,220 448,209 449,208 456,208" fill="#98a5a2"/><polygon points="804,456 821,456 821,456 827,456 827,458 794,461 794,465 801,466 786,469 786,474 780,474 779,469 776,469 776,465 787,463 788,456 804,458" fill="#3f5b74"/><polygon points="98,389 101,389 105,392 108,395 110,394 114,392 113,398 110,399 112,407 114,420 109,421 108,409 104,403 99,403 98,395 94,391 98,390" fill="#7f878a"/><polygon points="93,516 99,516 106,528 104,528 99,534 95,534 91,537 91,538 97,540 94,540 94,544 91,541 88,541 93,534 95,528 88,522 93,521" fill="#24334c"/><polygon points="258,525 261,529 255,529 253,530 253,533 247,536 248,541 243,552 236,552 239,548 239,543 236,537 235,537 242,532 242,530 251,526 258,526" fill="#959791"/><polygon points="143,364 150,364 153,373 153,379 151,379 151,376 143,383 140,385 139,380 135,380 127,374 128,365 135,366 136,370 142,366 145,366 143,365" fill="#979488"/><polygon points="673,511 686,511 689,514 700,514 701,515 701,525 690,523 687,527 683,527 683,521 679,521 678,514 673,513" fill="#223c5a"/><polygon points="808,522 843,523 843,529 825,530 824,533 820,533 820,534 817,533 817,530 812,530 812,526 807,525 808,523" fill="#394558"/><polygon points="255,240 258,240 258,242 263,247 268,246 269,250 271,250 270,253 268,257 270,257 270,260 263,261 263,265 255,268 257,257 257,245 255,245" fill="#8e9fa1"/><polygon points="787,403 798,406 799,407 799,414 801,414 799,420 795,420 794,417 791,417 790,422 784,424 783,414 779,413 779,409 786,409 784,406 787,406" fill="#8c9699"/><polygon points="266,169 274,169 274,172 265,182 262,197 261,197 261,212 259,213 254,212 257,187 258,187 259,183 263,183 263,171 266,171" fill="#1e3754"/><polygon points="705,489 713,489 735,493 735,496 739,496 741,503 739,505 735,505 728,504 728,502 726,502 724,499 720,497 716,497 716,496 706,493 705,493" fill="#3f5b74"/><polygon points="295,169 299,172 294,175 289,180 289,183 283,200 285,200 283,205 283,209 283,213 277,213 279,201 277,194 279,190 283,186 288,176 295,169" fill="#1e3754"/><polygon points="507,189 511,190 512,195 515,195 516,193 523,194 521,205 519,204 507,204 507,206 503,206 499,195 503,195 503,191 507,190" fill="#98a5a2"/><polygon points="79,333 88,333 88,344 86,344 86,347 76,347 76,346 69,346 68,344 68,333 75,333 75,336 79,335" fill="#3c4f65"/><polygon points="149,422 158,424 164,428 171,428 171,432 176,432 176,439 158,440 158,435 155,432 151,432 151,425 149,424" fill="#92928b"/><polygon points="91,463 108,467 118,474 106,469 99,466 91,467 84,470 79,480 84,474 95,480 93,491 91,493 88,484 79,484 76,476 79,467 91,465" fill="#969790"/><polygon points="441,490 444,490 459,495 460,502 463,504 466,507 467,507 467,508 462,507 458,507 455,504 443,504 441,507 441,506 441,497 441,491 441,491" fill="#3f5b74"/><polygon points="232,307 233,307 240,308 240,312 238,312 240,314 235,325 235,324 231,324 231,323 225,325 224,325 224,320 222,320 224,313 224,309 232,308" fill="#899190"/><polygon points="307,310 311,314 314,314 317,320 318,331 320,331 320,333 322,333 315,340 313,338 310,327 309,327 310,318 303,320 303,317 302,310 307,310" fill="#1b2740"/><polygon points="236,340 240,340 240,343 250,342 253,346 253,351 248,354 250,359 247,359 247,362 244,362 239,357 235,349 235,346 232,344 233,342 236,342" fill="#1b2740"/><polygon points="525,211 527,211 529,213 534,213 533,232 526,234 526,232 523,232 523,230 518,230 518,226 525,224 523,219 519,219 519,213 525,212" fill="#979488"/><polygon points="98,222 105,222 105,224 109,224 108,234 104,234 102,236 97,236 97,239 91,242 90,224 97,224 98,223" fill="#4d6a82"/><polygon points="228,245 232,245 232,247 235,247 236,250 236,261 232,261 231,269 225,268 225,267 220,267 220,262 222,250 225,250 225,247 228,246" fill="#9ca29c"/><polygon points="201,293 205,309 209,310 214,306 214,309 216,310 212,316 206,317 199,320 196,317 202,314 196,309 196,305 194,299 195,299 201,294" fill="#869191"/><polygon points="433,368 436,369 443,368 444,376 459,376 449,385 448,379 443,383 438,383 436,380 434,377 429,376 428,376 427,381 427,372 433,370" fill="#b4a78f"/><polygon points="272,250 280,250 294,253 294,256 291,257 294,264 291,266 287,266 287,264 284,264 280,261 280,262 269,261 270,257 267,253 272,251" fill="#98a5a2"/><polygon points="171,258 177,258 181,261 184,264 188,264 188,268 191,272 186,273 184,276 181,273 177,271 175,268 171,269 165,264 168,258 171,258" fill="#e0d2b6"/><polygon points="493,548 500,548 500,549 499,552 508,556 508,559 515,560 518,563 519,566 519,570 512,570 512,569 496,562 492,552 492,549 493,549" fill="#b4a78f"/><polygon points="391,82 393,82 395,85 400,86 406,86 406,85 410,86 410,92 406,96 403,96 402,98 393,98 392,100 388,96 388,87 391,85" fill="#7b8688"/><polygon points="434,159 443,159 444,160 443,165 444,165 444,169 445,169 443,182 433,176 436,176 437,174 433,172 432,165 429,167 429,163 434,160" fill="#b8b6a7"/><polygon points="299,198 304,198 304,202 306,202 304,217 309,217 309,220 310,220 304,223 304,232 302,230 298,230 296,209 298,209 298,204 299,204" fill="#2d5170"/><polygon points="149,184 151,186 154,187 151,193 149,197 149,200 139,210 136,204 142,198 139,195 128,193 129,189 136,189 140,191 142,187 149,185" fill="#c7b599"/><polygon points="333,275 343,276 343,286 346,286 343,301 335,299 336,295 333,292 333,286 332,286 332,282 331,282 333,279" fill="#797d7c"/><polygon points="888,491 903,491 903,502 898,502 898,500 894,500 894,499 884,500 884,499 872,499 871,497 871,493 888,492" fill="#869197"/><polygon points="892,522 901,522 903,525 902,534 901,533 877,533 877,530 880,530 880,526 877,526 877,523 892,523" fill="#4d6a82"/><polygon points="734,558 763,558 778,562 779,560 791,562 794,564 784,571 784,567 771,564 767,564 763,563 763,562 756,560 735,560 732,562 734,560" fill="#26405e"/><polygon points="403,114 407,114 407,120 410,122 418,130 418,133 404,134 404,130 406,130 404,123 400,123 400,126 396,128 391,128 393,116 403,115" fill="#828d8f"/><polygon points="903,124 905,124 905,128 906,128 906,176 903,176 903,157 898,156 896,153 896,148 899,146 896,139 903,139" fill="#d4c0a0"/><polygon points="330,231 335,235 336,235 333,238 333,242 333,249 337,256 332,257 330,264 330,257 328,250 323,247 324,246 326,239 329,236 330,232" fill="#434f5f"/><polygon points="857,498 864,502 857,500 851,502 842,508 839,506 835,500 819,502 810,502 808,502 802,503 797,504 799,502 805,500 839,500 857,499" fill="#b8b6a7"/><polygon points="232,540 239,543 236,551 239,555 232,551 229,555 227,559 221,566 224,575 220,580 217,580 229,551 228,548 221,547 229,545 232,541" fill="#1e3754"/><polygon points="188,304 194,304 196,305 196,309 202,314 196,314 196,317 201,323 198,323 192,327 192,323 187,323 186,320 186,316 186,308 188,306" fill="#b8b6a7"/><polygon points="198,401 227,402 229,414 232,415 232,421 225,421 225,411 224,403 220,403 218,406 216,410 209,409 206,406 198,407 196,403 198,403" fill="#979488"/><polygon points="127,58 128,63 131,70 135,78 138,75 134,81 129,78 127,81 124,82 123,103 121,93 120,83 121,82 121,70 125,71 127,59" fill="#d5c7ac"/><polygon points="578,145 581,146 590,149 582,152 586,154 592,152 588,156 577,160 572,161 565,154 570,160 578,157 575,154 581,149 572,148 578,146" fill="#c7b599"/><polygon points="166,303 173,305 179,309 176,320 173,320 171,323 171,327 175,328 171,333 168,331 168,327 166,323 165,323 165,318 165,305 166,305" fill="#1e3754"/><polygon points="339,480 344,481 346,482 341,496 339,499 340,502 339,508 341,518 336,515 333,510 331,510 335,502 340,493 337,488 337,485 339,482" fill="#e0d2b6"/><polygon points="344,522 348,522 352,534 358,534 356,543 351,540 347,540 347,538 343,537 336,540 336,537 336,532 340,533 340,530 343,523 344,523" fill="#2f4c67"/><polygon points="484,178 499,179 501,182 501,186 503,186 501,187 503,195 493,195 493,193 496,193 496,190 485,190 485,183 482,183 482,180 484,180" fill="#94a3a2"/><polygon points="131,342 136,342 139,349 146,350 146,355 154,357 154,361 150,362 150,364 138,362 138,357 136,357 136,354 134,354 134,350 131,347" fill="#223a58"/><polygon points="238,480 244,480 246,485 248,487 248,491 246,491 246,492 250,492 250,497 240,499 240,492 239,491 229,491 228,485 238,481" fill="#7f8b8e"/><polygon points="136,528 140,534 143,534 138,537 138,543 131,545 130,545 132,552 132,556 127,560 125,560 123,548 124,540 128,534 132,533 136,529" fill="#1e3754"/><polygon points="140,549 142,549 142,554 147,554 146,574 147,574 147,585 149,585 149,589 145,589 143,579 140,579 140,575 139,575 138,555 140,556" fill="#2d4763"/><polygon points="52,133 54,134 54,220 52,220" fill="#e0d2b6"/><polygon points="294,128 305,128 306,130 306,138 299,138 299,141 298,141 298,150 289,149 289,145 286,141 286,139 289,139 291,138 289,135 294,134" fill="#a1b1ae"/><polygon points="57,239 58,239 58,242 75,242 76,243 76,249 69,250 69,253 67,253 67,254 56,255 54,242 57,242" fill="#4d6a82"/><polygon points="318,289 332,289 332,291 336,295 336,298 332,299 332,305 326,305 326,302 324,299 316,301 316,291 318,291" fill="#868782"/><polygon points="287,282 291,282 292,294 294,303 296,309 299,312 303,317 305,317 296,321 298,316 295,313 292,313 288,303 288,292 284,286 287,284" fill="#2d4763"/><polygon points="106,335 110,340 112,340 114,349 119,357 119,358 125,362 128,368 127,368 117,365 113,362 113,359 110,354 106,344 106,344 106,339" fill="#828d8f"/><polygon points="224,335 227,335 225,343 229,343 235,346 235,355 232,355 232,357 221,355 221,353 217,353 217,350 217,344 220,343 220,340 224,339" fill="#425c74"/><polygon points="387,467 391,467 392,470 397,472 397,482 393,478 388,478 389,489 387,497 384,497 383,481 384,481 384,472 385,472 385,467 387,467" fill="#3c586e"/><polygon points="562,127 563,131 567,137 564,142 563,135 557,134 548,137 544,145 534,152 531,148 540,139 544,142 538,137 542,133 556,130 562,131" fill="#c7b599"/><polygon points="525,520 538,521 538,523 544,523 544,525 549,525 555,529 566,530 563,534 563,533 545,534 545,532 541,528 526,525 526,522 525,522" fill="#a1b1ae"/><polygon points="65,540 67,540 67,551 67,552 68,564 72,566 72,569 65,575 63,582 63,578 62,578 62,554 63,554 64,547 64,543 65,543" fill="#30394d"/><polygon points="280,122 283,124 285,130 288,130 289,137 291,137 285,139 287,144 284,144 283,141 274,134 269,134 269,131 272,128 276,126 280,124" fill="#9aa19b"/><polygon points="328,162 332,163 332,167 314,180 311,191 307,193 303,189 304,183 309,182 309,179 320,168 322,168 325,164 328,164" fill="#2d4763"/><polygon points="451,191 460,193 462,197 469,198 467,204 464,204 463,213 462,213 462,205 456,205 456,208 449,208 451,200 448,200 448,197 451,194" fill="#a1a79e"/><polygon points="827,323 834,324 835,335 828,336 828,339 821,343 820,350 817,350 817,346 816,346 817,344 816,335 820,335 825,329 825,325 827,325" fill="#7f8486"/><polygon points="176,535 181,535 184,537 184,552 181,554 180,551 175,551 175,554 171,555 171,537 176,536" fill="#7c878a"/><polygon points="429,90 437,92 440,94 443,97 443,100 445,100 445,107 441,108 438,116 437,108 432,108 432,105 430,105 429,97 430,93 429,93" fill="#e1ceae"/><polygon points="348,137 358,137 358,139 362,139 359,145 359,148 352,149 352,154 354,154 354,159 355,159 355,167 350,150 346,148 346,139 348,139" fill="#2e3b4f"/><polygon points="76,378 80,378 80,381 82,381 83,399 71,399 71,402 68,405 68,390 73,390 73,384 76,383" fill="#7b868b"/><polygon points="709,546 713,546 716,549 711,555 708,555 706,562 704,564 691,563 690,558 690,556 700,556 701,555 701,551 697,548 708,548 709,547" fill="#adb2a8"/><polygon points="417,99 421,103 423,103 430,100 430,107 425,107 422,116 425,116 428,119 428,122 429,124 423,126 421,119 418,122 416,122 417,105" fill="#828d8f"/><polygon points="742,131 746,139 743,144 745,154 742,152 734,150 731,157 728,150 730,146 731,149 735,146 731,141 734,138 737,134 742,139 742,135" fill="#b4a78f"/><polygon points="436,142 437,142 438,150 440,150 438,159 434,159 430,163 422,161 422,156 423,156 425,150 429,149 430,145 436,144" fill="#828d8f"/><polygon points="258,165 263,167 263,183 258,182 258,176 254,172 247,172 247,176 244,178 242,178 242,174 241,174 241,168 243,168 243,167 258,167" fill="#708087"/><polygon points="455,179 463,179 464,189 466,189 466,195 467,195 467,197 462,197 460,193 445,190 445,186 447,185 447,180 448,180 448,183 455,182" fill="#a1b1ae"/><polygon points="439,517 441,519 447,522 447,525 451,526 455,530 456,533 459,533 462,537 462,543 456,543 454,541 454,538 451,536 443,529 439,526" fill="#2d4763"/><polygon points="198,528 206,528 211,533 211,549 209,549 209,547 206,547 206,541 203,541 203,540 195,541 195,536 196,536 196,530 198,530" fill="#7c8386"/><polygon points="445,103 449,103 458,107 458,108 462,109 462,113 458,118 452,118 452,116 445,116 443,116 443,120 440,120 440,111 443,107 445,107" fill="#e1ceae"/><polygon points="305,289 307,289 313,299 313,312 318,316 318,320 314,314 311,314 309,312 309,309 298,302 299,303 305,302 305,298 302,290 305,290" fill="#2d4763"/><polygon points="812,344 816,344 817,351 810,357 809,362 806,362 805,366 801,366 799,370 797,370 798,359 801,359 801,353 806,353 806,350 812,346" fill="#d5c7ac"/><polygon points="214,391 217,391 217,392 225,396 232,395 233,398 239,398 239,403 233,407 229,407 229,405 227,402 211,400 216,395 216,392 214,392" fill="#465564"/><polygon points="407,391 419,394 419,396 426,400 425,411 421,411 422,403 418,402 415,405 415,413 414,413 413,411 413,403 406,400 406,392 407,392" fill="#d5c7ac"/><polygon points="324,427 329,428 333,433 333,436 330,436 330,437 326,437 326,435 325,435 322,446 317,446 315,440 315,440 315,428 324,428" fill="#d5c7ac"/><polygon points="564,461 587,463 586,465 587,472 583,472 583,470 560,469 557,466 557,462 564,462" fill="#e0d2b6"/><polygon points="410,85 419,85 422,87 428,87 428,90 430,93 429,94 430,100 425,100 423,103 421,103 417,93 410,93" fill="#c6bea9"/><polygon points="53,341 54,342 64,341 64,343 67,343 67,349 65,349 67,351 61,353 63,364 56,362 54,357 53,357" fill="#a3aaa4"/><polygon points="87,410 90,411 93,410 94,418 95,422 97,431 98,435 93,432 86,432 88,426 82,425 82,424 86,418 84,415 80,415 87,413" fill="#2d4763"/><polygon points="623,423 631,424 631,426 634,429 641,431 641,435 644,435 642,437 621,437 621,432 623,431 623,426 622,426 622,424 623,424" fill="#a19a8a"/><polygon points="671,529 672,529 670,533 671,543 664,543 659,538 656,541 653,541 652,538 646,538 653,532 653,533 657,532 657,530 664,532 671,530" fill="#4a657b"/><polygon points="516,219 523,219 525,224 518,226 518,230 523,230 523,232 527,234 527,238 526,236 515,238 515,235 511,235 510,220 516,220" fill="#98a5a2"/><polygon points="511,479 515,480 522,485 526,489 526,493 529,493 534,497 534,502 529,500 529,497 525,503 523,503 521,493 508,488 508,481 511,481" fill="#2d4763"/><polygon points="706,519 712,519 712,521 716,526 711,528 711,532 706,533 705,541 700,536 696,536 696,529 700,529 701,525 705,523 708,523 706,522" fill="#334b65"/><polygon points="153,64 157,68 164,72 166,75 169,78 175,78 179,72 184,74 188,81 180,82 164,81 154,79 158,75 158,71 154,74 153,72" fill="#d5c7ac"/><polygon points="451,168 455,172 459,175 466,175 466,178 471,183 467,183 467,186 463,179 455,179 454,183 448,180 445,178 445,172 445,169 451,171" fill="#98a5a2"/><polygon points="903,181 906,181 906,247 905,247 905,256 902,256 901,246 902,246 902,242 903,242 903,236 902,236 903,235" fill="#d4c0a0"/><polygon points="105,304 110,309 116,309 116,308 121,306 121,312 124,314 124,316 117,323 113,323 112,318 105,318 105,314 104,314 104,306 105,306" fill="#8e9391"/><polygon points="805,326 810,326 809,339 812,339 812,346 806,350 806,346 805,344 798,346 798,340 797,340 798,335 801,335 801,331 805,329" fill="#87857f"/><polygon points="709,443 715,443 715,444 721,443 721,446 724,447 723,461 725,462 725,463 717,463 716,459 713,459 713,451 711,451 711,448 709,448" fill="#859497"/><polygon points="560,468 560,469 571,469 583,470 586,473 590,473 590,474 578,474 579,484 575,484 574,481 570,481 570,478 564,476 562,476 560,473" fill="#e0d2b6"/><polygon points="295,588 299,588 299,590 332,589 330,592 206,592 206,590 231,590 231,589 235,589 235,590 295,590" fill="#f7e8cd"/><polygon points="544,237 546,237 546,239 549,241 549,243 548,243 549,258 545,260 545,254 540,254 538,257 535,257 536,243 542,242 542,238 544,238" fill="#c7b599"/><polygon points="240,315 251,315 251,323 254,324 253,331 250,333 243,333 243,332 240,332 240,329 243,329 243,325 239,325 239,318 240,318" fill="#8b9491"/><polygon points="882,368 891,369 891,370 895,370 895,372 902,372 902,383 899,383 898,385 895,385 895,383 892,383 890,380 887,381 886,374 882,372" fill="#323c4d"/><polygon points="187,482 190,482 192,488 196,488 196,491 202,491 201,495 205,495 203,496 205,503 192,504 191,499 188,499 190,492 187,491" fill="#d5c7ac"/><polygon points="359,532 366,532 366,534 371,538 371,544 369,544 369,547 366,549 361,544 359,552 355,552 354,543 356,543 358,533 359,533" fill="#2d4763"/><polygon points="306,561 309,561 313,564 317,563 317,562 328,564 328,573 320,573 320,574 311,574 311,575 310,575 310,569 306,567" fill="#868e8e"/><polygon points="294,262 296,262 300,267 300,282 302,282 302,292 296,292 298,286 295,286 295,280 291,276 291,264 294,264" fill="#6b6e71"/><polygon points="181,387 187,388 188,392 187,396 179,400 175,402 175,399 171,406 168,406 162,402 164,396 168,396 171,395 171,392 179,388 181,388" fill="#b4a78f"/><polygon points="325,435 326,435 326,437 335,441 332,441 332,443 335,443 332,446 332,455 330,459 326,459 324,450 321,450 324,441 324,437 325,437" fill="#98a5a2"/><polygon points="857,473 876,473 876,474 872,474 869,478 872,478 872,480 879,478 868,487 868,485 862,485 860,482 860,478 854,477 854,474 857,474" fill="#3f5b74"/><polygon points="99,97 105,98 105,109 106,109 108,122 109,122 109,126 104,126 102,130 99,130 99,126 99,126 99,123 99,123" fill="#e1ceae"/><polygon points="603,138 608,141 612,144 605,152 605,159 603,165 601,168 597,159 596,164 597,157 601,157 597,150 603,146 600,142 596,145 603,141" fill="#c7b599"/><polygon points="69,170 80,170 81,171 80,183 79,183 80,191 76,191 76,193 72,191 72,185 71,185 71,178 72,176 69,176" fill="#88867f"/><polygon points="769,383 773,383 773,385 768,390 767,398 767,400 764,400 758,406 758,403 756,400 756,396 753,396 757,390 765,388 765,384 769,384" fill="#5e6974"/><polygon points="317,446 322,446 324,450 325,458 328,461 321,459 320,462 324,465 314,466 311,462 311,456 309,456 310,455 310,452 315,447 317,447" fill="#98a5a2"/><polygon points="220,469 225,469 228,474 228,478 222,478 222,474 218,480 216,480 214,489 210,489 202,487 202,482 207,482 206,480 213,472 220,470" fill="#b8b6a7"/><polygon points="579,533 592,534 592,536 603,536 609,533 609,537 611,537 611,540 603,541 603,543 600,543 600,545 592,540 578,538 578,536 579,536" fill="#98958b"/><polygon points="193,540 206,541 209,547 209,549 216,547 216,551 213,554 207,559 205,559 202,563 203,556 202,556 199,554 201,549 198,545 193,544" fill="#1e3754"/><polygon points="391,137 395,138 395,142 402,144 402,150 397,152 397,153 392,153 391,149 380,149 380,144 385,142 385,141 389,141 389,138 391,138" fill="#828d8f"/><polygon points="388,535 395,536 393,538 396,538 397,544 403,544 403,545 408,547 408,554 396,552 396,558 395,558 393,554 391,552 392,543 388,538" fill="#8b9a9c"/><polygon points="326,269 336,271 335,275 333,275 333,279 330,280 332,286 333,286 332,291 332,288 321,288 320,287 320,282 324,277 325,271 326,271" fill="#b8b6a7"/><polygon points="683,452 685,452 691,454 693,454 693,456 690,459 687,466 691,467 691,469 685,470 680,467 680,465 678,465 678,461 675,454 683,452" fill="#8a9291"/><polygon points="131,499 147,499 146,503 147,503 147,511 149,511 147,514 138,514 138,510 134,510 134,507 131,506" fill="#666c73"/><polygon points="619,196 623,198 627,209 623,208 619,209 616,210 620,213 618,216 609,213 607,208 609,206 611,204 612,208 619,202 618,200 619,197" fill="#c7b599"/><polygon points="259,346 265,346 265,349 268,349 268,351 274,351 274,355 276,355 268,365 265,362 265,359 261,357 261,353 258,351 258,347 259,347" fill="#303e52"/><polygon points="709,429 713,429 712,435 719,435 720,436 720,437 716,437 715,443 709,441 697,441 697,443 694,443 694,436 698,436 698,435 709,431" fill="#8e8879"/></svg>